<?xml version="1.0" encoding="UTF-8"?>
<svg width="389px" height="307px" viewBox="0 0 389 307" version="1.1" xmlns="http://www.w3.org/2000/svg" xmlns:xlink="http://www.w3.org/1999/xlink">
    <title>Group 38</title>
    <defs>
        <path d="M26,24 C28.7614237,24 31,26.2385763 31,29 L31,29 L31,31 C31,31.5522847 30.5522847,32 30,32 C29.4477153,32 29,31.5522847 29,31 L29,31 L29,29 C29,27.3431458 27.6568542,26 26,26 L26,26 L18,26 C16.3431458,26 15,27.3431458 15,29 L15,29 L15,31 C15,31.5522847 14.5522847,32 14,32 C13.4477153,32 13,31.5522847 13,31 L13,31 L13,29 C13,26.2385763 15.2385763,24 18,24 L18,24 Z M22,12 C24.7614237,12 27,14.2385763 27,17 C27,19.7614237 24.7614237,22 22,22 C19.2385763,22 17,19.7614237 17,17 C17,14.2385763 19.2385763,12 22,12 Z M22,14 C20.3431458,14 19,15.3431458 19,17 C19,18.6568542 20.3431458,20 22,20 C23.6568542,20 25,18.6568542 25,17 C25,15.3431458 23.6568542,14 22,14 Z" id="path-1"></path>
        <path d="M22,11 C28.0751322,11 33,15.9248678 33,22 C33,28.0751322 28.0751322,33 22,33 C15.9248678,33 11,28.0751322 11,22 C11,15.9248678 15.9248678,11 22,11 Z M22,13 C17.0294373,13 13,17.0294373 13,22 C13,26.9705627 17.0294373,31 22,31 C26.9705627,31 31,26.9705627 31,22 C31,17.0294373 26.9705627,13 22,13 Z M22,15 C25.8659932,15 29,18.1340068 29,22 C29,25.8659932 25.8659932,29 22,29 C18.1340068,29 15,25.8659932 15,22 C15,18.1340068 18.1340068,15 22,15 Z M22,17 C19.2385763,17 17,19.2385763 17,22 C17,24.7614237 19.2385763,27 22,27 C24.7614237,27 27,24.7614237 27,22 C27,19.2385763 24.7614237,17 22,17 Z M22,19 C23.6568542,19 25,20.3431458 25,22 C25,23.6568542 23.6568542,25 22,25 C20.3431458,25 19,23.6568542 19,22 C19,20.3431458 20.3431458,19 22,19 Z M22,21 C21.4477153,21 21,21.4477153 21,22 C21,22.5522847 21.4477153,23 22,23 C22.5522847,23 23,22.5522847 23,22 C23,21.4477153 22.5522847,21 22,21 Z" id="path-3"></path>
        <path d="M19,2 C20.6568542,2 22,3.34314575 22,5 L22,19 C22,20.6568542 20.6568542,22 19,22 L5,22 C3.34314575,22 2,20.6568542 2,19 L2,5 C2,3.34314575 3.34314575,2 5,2 L19,2 Z M4.00012649,12.8960883 L4,19 C4,19.5522847 4.44771525,20 5,20 L11,20 L11,13 L4.8,13 C4.51268198,13 4.24108684,12.9626013 4.00012649,12.8960883 Z M20.0008542,12.8958174 C19.7596502,12.9624997 19.4877079,13 19.2,13 L19.2,13 L13,13 L13,20 L13,20 L19,20 C19.5522847,20 20,19.5522847 20,19 Z M11,4 L5,4 C4.44771525,4 4,4.44771525 4,5 L4.00012649,11.1039117 C4.24108684,11.0373987 4.51268198,11 4.8,11 L4.8,11 L11,11 L11,4 L11,4 Z M19,4 L13,4 L13,11 L19.2,11 C19.4877079,11 19.7596502,11.0375003 20.0008542,11.1041826 L20,5 C20,4.44771525 19.5522847,4 19,4 Z" id="path-5"></path>
        <path d="M12,2 L22.4616217,9.60081306 L18.4656378,21.8991869 L5.53436222,21.8991869 L1.53837832,9.60081306 L12,2 Z M12,4.472 L3.889,10.364 L6.987,19.899 L17.012,19.899 L20.11,10.364 L12,4.472 Z M12,10 C13.6568542,10 15,11.3431458 15,13 C15,14.6568542 13.6568542,16 12,16 C10.3431458,16 9,14.6568542 9,13 C9,11.3431458 10.3431458,10 12,10 Z M12,12 C11.4477153,12 11,12.4477153 11,13 C11,13.5522847 11.4477153,14 12,14 C12.5522847,14 13,13.5522847 13,13 C13,12.4477153 12.5522847,12 12,12 Z" id="path-7"></path>
        <path d="M7.33333333,0.666666667 C7.36787339,0.666666667 7.40179994,0.669293382 7.43492412,0.674357952 L7.33333333,0.666666667 C7.38270036,0.666666667 7.43150285,0.672142207 7.47892884,0.682756965 C7.49692737,0.686637947 7.51410934,0.691222039 7.53100377,0.696459865 C7.54273542,0.700283387 7.55456165,0.704319142 7.56626256,0.708682525 C7.58848451,0.716782577 7.61001584,0.726162231 7.63092146,0.736608152 C7.63842159,0.740511421 7.64590323,0.744421503 7.65331149,0.748474304 C7.67277,0.758995859 7.69170543,0.770647081 7.70998448,0.783185629 C7.72265488,0.791943493 7.73478598,0.800875199 7.74662693,0.810231003 C7.76174567,0.822154235 7.77645125,0.834860711 7.79057543,0.84817714 C7.79529839,0.852629037 7.80004944,0.857240403 7.80473785,0.861928813 L11.8047379,4.86192881 L11.8184895,4.87609123 C11.831806,4.89021541 11.8445124,4.904921 11.8565668,4.92016588 L11.8047379,4.86192881 C11.833957,4.89114796 11.8601838,4.92280014 11.8832209,4.95640915 C11.8960196,4.97496123 11.9076708,4.99389667 11.9183726,5.01342637 C11.9222452,5.02076343 11.9261552,5.02824508 11.9299208,5.03579583 C11.9405044,5.05665083 11.9498841,5.07818216 11.9581262,5.10026794 C11.9623475,5.11210501 11.9663833,5.12393125 11.9700856,5.13586889 C11.9754446,5.15255733 11.9800287,5.1697393 11.9839295,5.18717924 C11.9945245,5.23516382 12,5.2839663 12,5.33333333 L12,13.3333333 C12,14.4379028 11.1045695,15.3333333 10,15.3333333 L2,15.3333333 C0.8954305,15.3333333 0,14.4379028 0,13.3333333 L0,2.66666667 C0,1.56209717 0.8954305,0.666666667 2,0.666666667 Z M6.666,1.99966667 L2,2 C1.63181017,2 1.33333333,2.29847683 1.33333333,2.66666667 L1.33333333,13.3333333 C1.33333333,13.7015232 1.63181017,14 2,14 L10,14 C10.3681898,14 10.6666667,13.7015232 10.6666667,13.3333333 L10.666,5.99966667 L7.33333333,6 C6.9986153,6 6.72151132,5.75332493 6.67389505,5.43184845 L6.66666667,5.33333333 L6.666,1.99966667 Z M8.66666667,10.6666667 C9.0348565,10.6666667 9.33333333,10.9651435 9.33333333,11.3333333 C9.33333333,11.7015232 9.0348565,12 8.66666667,12 L8.66666667,12 L3.33333333,12 C2.9651435,12 2.66666667,11.7015232 2.66666667,11.3333333 C2.66666667,10.9651435 2.9651435,10.6666667 3.33333333,10.6666667 L3.33333333,10.6666667 Z M8.66666667,8 C9.0348565,8 9.33333333,8.29847683 9.33333333,8.66666667 C9.33333333,9.0348565 9.0348565,9.33333333 8.66666667,9.33333333 L8.66666667,9.33333333 L3.33333333,9.33333333 C2.9651435,9.33333333 2.66666667,9.0348565 2.66666667,8.66666667 C2.66666667,8.29847683 2.9651435,8 3.33333333,8 L3.33333333,8 Z M4.66666667,5.33333333 C5.0348565,5.33333333 5.33333333,5.63181017 5.33333333,6 C5.33333333,6.36818983 5.0348565,6.66666667 4.66666667,6.66666667 L4.66666667,6.66666667 L3.33333333,6.66666667 C2.9651435,6.66666667 2.66666667,6.36818983 2.66666667,6 C2.66666667,5.63181017 2.9651435,5.33333333 3.33333333,5.33333333 L3.33333333,5.33333333 Z M7.999,2.94166667 L8,4.66666667 L9.724,4.66666667 L7.999,2.94166667 Z" id="path-9"></path>
        <path d="M11.3333333,0 C12.4379028,0 13.3333333,0.8954305 13.3333333,2 L13.3333333,11.3333333 C13.3333333,12.4379028 12.4379028,13.3333333 11.3333333,13.3333333 L2,13.3333333 C0.8954305,13.3333333 0,12.4379028 0,11.3333333 L0,2 C0,0.8954305 0.8954305,0 2,0 L11.3333333,0 Z M11.3333333,1.33333333 L2,1.33333333 C1.65810944,1.33333333 1.37632856,1.59069346 1.33781849,1.92225258 L1.33333333,2 L1.33333333,11.3333333 C1.33333333,11.6752239 1.59069346,11.9570048 1.92225258,11.9955148 L2,12 L11.3333333,12 C11.6752239,12 11.9570048,11.7426399 11.9955148,11.4110808 L12,11.3333333 L12,2 C12,1.65810944 11.7426399,1.37632856 11.4110808,1.33781849 L11.3333333,1.33333333 Z M6.71149511,8.20098037 C7.08468138,8.20098037 7.39296569,8.50926468 7.39296569,8.8905637 C7.39296569,9.26374997 7.08468138,9.57203428 6.71149511,9.57203428 C6.33019609,9.57203428 6.02191178,9.26374997 6.02191178,8.8905637 C6.02191178,8.50926468 6.33019609,8.20098037 6.71149511,8.20098037 Z M6.67904413,3.33333333 C7.79860295,3.33333333 8.66666667,4.15272058 8.66666667,5.20737744 C8.66666667,6.89482841 7.23071079,6.46485293 7.23071079,7.24367645 L7.23071079,7.24367645 L7.23071079,7.66553919 L6.12737746,7.66553919 L6.12737746,7.31669116 C6.12737746,5.62112744 7.59578432,6.44051469 7.59578432,5.20737744 C7.59578432,4.74495097 7.19014707,4.39610294 6.67904413,4.39610294 C6.0624755,4.39610294 5.664951,4.8585294 5.75419119,5.44264705 L5.75419119,5.44264705 L4.6751961,5.44264705 C4.56973041,4.25818627 5.45401962,3.33333333 6.67904413,3.33333333 Z" id="path-11"></path>
        <path d="M3.33333333,14.6666667 C2.22876383,14.6666667 1.33333333,13.7712362 1.33333333,12.6666667 L1.33333333,3.33333333 C1.33333333,2.22876383 2.22876383,1.33333333 3.33333333,1.33333333 L12.6666667,1.33333333 C13.7712362,1.33333333 14.6666667,2.22876383 14.6666667,3.33333333 L14.6666667,12.6666667 C14.6666667,13.7712362 13.7712362,14.6666667 12.6666667,14.6666667 L3.33333333,14.6666667 Z M5.33233333,6.66633333 L2.66633333,6.66633333 L2.66666667,12.6666667 C2.66666667,13.0348565 2.9651435,13.3333333 3.33333333,13.3333333 L5.33233333,13.3333333 L5.33233333,6.66633333 Z M13.3333333,6.66633333 L6.66633333,6.66633333 L6.66633333,13.3333333 L12.6666667,13.3333333 C13.0348565,13.3333333 13.3333333,13.0348565 13.3333333,12.6666667 L13.3333333,6.66633333 Z M12.6666667,2.66666667 L3.33333333,2.66666667 C2.9651435,2.66666667 2.66666667,2.9651435 2.66666667,3.33333333 L2.66633333,5.33233333 L13.3333333,5.33233333 L13.3333333,3.33333333 C13.3333333,2.9651435 13.0348565,2.66666667 12.6666667,2.66666667 Z" id="path-13"></path>
        <path d="M11.3333333,0 C12.4379028,0 13.3333333,0.8954305 13.3333333,2 L13.3333333,11.3333333 C13.3333333,12.4379028 12.4379028,13.3333333 11.3333333,13.3333333 L2,13.3333333 C0.8954305,13.3333333 0,12.4379028 0,11.3333333 L0,2 C0,0.8954305 0.8954305,0 2,0 L11.3333333,0 Z M11.3333333,1.33333333 L2,1.33333333 C1.65810944,1.33333333 1.37632856,1.59069346 1.33781849,1.92225258 L1.33333333,2 L1.33333333,11.3333333 C1.33333333,11.6752239 1.59069346,11.9570048 1.92225258,11.9955148 L2,12 L11.3333333,12 C11.6752239,12 11.9570048,11.7426399 11.9955148,11.4110808 L12,11.3333333 L12,2 C12,1.65810944 11.7426399,1.37632856 11.4110808,1.33781849 L11.3333333,1.33333333 Z M7.29266667,3.33333333 C8.376,3.33333333 9.22533333,4.00066667 9.22533333,5.136 C9.22533333,5.80333333 8.93933333,6.254 8.46266667,6.514 C9.11266667,6.748 9.53733333,7.25066667 9.53733333,8.06533333 C9.53733333,9.192 8.688,9.83333333 7.622,9.83333333 L7.622,9.83333333 L4.66666667,9.83333333 L4.66666667,3.33333333 Z M7.42266667,7.14666667 L6.01,7.14666667 L6.01,8.62866667 L7.42266667,8.62866667 C7.84733333,8.62866667 8.18533333,8.29933333 8.18533333,7.892 C8.18533333,7.48466667 7.84733333,7.14666667 7.42266667,7.14666667 L7.42266667,7.14666667 Z M7.128,4.538 L6.01,4.538 L6.01,6.02 L7.128,6.02 C7.544,6.02 7.882,5.682 7.882,5.27466667 C7.882,4.85866667 7.544,4.538 7.128,4.538 L7.128,4.538 Z" id="path-15"></path>
        <linearGradient x1="50%" y1="0%" x2="50%" y2="100%" id="linearGradient-17">
            <stop stop-color="#FFFFFF" stop-opacity="0" offset="0%"></stop>
            <stop stop-color="#FFFFFF" offset="100%"></stop>
        </linearGradient>
    </defs>
    <g id="v2" stroke="none" stroke-width="1" fill="none" fill-rule="evenodd">
        <g id="illustrations-outlines" transform="translate(-477.000000, -49.000000)">
            <g id="Group-38" transform="translate(477.000000, 49.000000)">
                <g id="Group-27-Copy-3" transform="translate(49.000000, 4.000000)">
                    <rect id="Rectangle-Copy-21" fill="#EBF4FF" x="0" y="0" width="118" height="44" rx="4"></rect>
                    <g id="Group-37" transform="translate(108.000000, 13.000000)">
                        <circle id="Oval" fill="#00D6B6" cx="9" cy="9" r="9"></circle>
                        <polyline id="Path-7" stroke="#FFFFFF" stroke-width="2" points="3.88922013 8.73250033 7.40165619 12.2746396 13.8892201 6.27463959"></polyline>
                    </g>
                    <path d="M46.124,27 L46.124,23.964 L47.792,23.964 C49.664,23.964 50.6,22.968 50.6,21.468 C50.6,19.968 49.652,18.984 47.792,18.984 L45.116,18.984 L45.116,27 L46.124,27 Z M47.696,23.124 L46.124,23.124 L46.124,19.824 L47.696,19.824 C49.1,19.824 49.532,20.496 49.532,21.468 C49.532,22.44 49.1,23.124 47.696,23.124 Z M54.356,27.144 C55.424,27.144 56.348,26.676 56.624,25.512 L55.772,25.272 C55.592,26.028 55.076,26.364 54.356,26.364 C53.276,26.364 52.676,25.524 52.628,24.18 L56.564,24.18 C56.624,24.024 56.684,23.724 56.684,23.376 C56.684,21.948 55.856,20.856 54.356,20.856 C52.736,20.856 51.68,22.068 51.68,24.024 C51.68,26.052 52.712,27.144 54.356,27.144 Z M55.7,23.46 L52.652,23.46 C52.784,22.296 53.372,21.612 54.332,21.612 C55.232,21.612 55.712,22.308 55.712,23.148 C55.712,23.232 55.712,23.352 55.7,23.46 Z M59.336,27 L59.336,23.964 C59.336,22.656 60.032,21.888 60.98,21.888 C61.148,21.888 61.352,21.9 61.46,21.924 L61.52,20.892 C60.404,20.688 59.504,21.468 59.264,22.536 L59.132,21 L58.352,21 L58.352,27 L59.336,27 Z M64.628,27.144 C65.9,27.144 66.86,26.508 66.86,25.368 C66.86,22.932 63.44,24.156 63.44,22.584 C63.44,21.972 63.884,21.612 64.616,21.612 C65.408,21.612 65.804,22.02 65.864,22.656 L66.788,22.524 C66.668,21.432 65.924,20.856 64.616,20.856 C63.416,20.856 62.516,21.528 62.516,22.656 C62.516,25.02 65.936,23.856 65.936,25.44 C65.936,26.076 65.408,26.388 64.628,26.388 C63.86,26.388 63.248,25.92 63.152,25.236 L62.252,25.488 C62.432,26.544 63.38,27.144 64.628,27.144 Z M70.748,27.144 C72.344,27.144 73.436,26.016 73.436,24 C73.436,21.984 72.344,20.856 70.748,20.856 C69.152,20.856 68.06,21.984 68.06,24 C68.06,26.016 69.152,27.144 70.748,27.144 Z M70.748,26.376 C69.644,26.376 69.056,25.548 69.056,24 C69.056,22.452 69.644,21.624 70.748,21.624 C71.852,21.624 72.44,22.452 72.44,24 C72.44,25.548 71.852,26.376 70.748,26.376 Z M76.1,27 L76.1,23.52 C76.1,22.212 76.82,21.72 77.672,21.72 C78.476,21.72 78.848,22.224 78.848,22.992 L78.848,27 L79.832,27 L79.832,22.788 C79.832,21.576 79.076,20.856 77.984,20.856 C77.036,20.856 76.304,21.336 75.968,22.164 L75.848,21 L75.116,21 L75.116,27 L76.1,27 Z M83.252,27.132 C84.008,27.132 84.752,26.772 84.992,26.112 C85.028,26.292 85.076,26.448 85.148,26.58 C85.328,26.928 85.652,27.12 86.108,27.12 C86.324,27.12 86.612,27.06 86.768,26.952 L86.708,26.22 C86.624,26.292 86.468,26.352 86.336,26.352 C86.06,26.352 85.892,26.208 85.892,25.824 L85.892,22.704 C85.892,21.444 85.1,20.856 83.84,20.856 C82.688,20.856 81.776,21.456 81.644,22.572 L82.604,22.74 C82.628,22.08 83,21.66 83.78,21.66 C84.572,21.66 84.968,22.092 84.968,22.812 L84.968,23.52 C84.752,23.508 84.536,23.496 84.404,23.496 C82.352,23.496 81.392,24.252 81.392,25.44 C81.392,26.52 82.196,27.132 83.252,27.132 Z M83.48,26.376 C82.772,26.376 82.364,25.992 82.364,25.404 C82.364,24.588 83.072,24.228 84.404,24.228 C84.608,24.228 84.812,24.24 84.968,24.252 L84.968,24.756 C84.968,25.908 84.224,26.376 83.48,26.376 Z M89.9,27.144 C91.172,27.144 92.132,26.508 92.132,25.368 C92.132,22.932 88.712,24.156 88.712,22.584 C88.712,21.972 89.156,21.612 89.888,21.612 C90.68,21.612 91.076,22.02 91.136,22.656 L92.06,22.524 C91.94,21.432 91.196,20.856 89.888,20.856 C88.688,20.856 87.788,21.528 87.788,22.656 C87.788,25.02 91.208,23.856 91.208,25.44 C91.208,26.076 90.68,26.388 89.9,26.388 C89.132,26.388 88.52,25.92 88.424,25.236 L87.524,25.488 C87.704,26.544 88.652,27.144 89.9,27.144 Z" id="Personas" fill="#272C2F" fill-rule="nonzero"></path>
                    <mask id="mask-2" fill="white">
                        <use xlink:href="#path-1"></use>
                    </mask>
                    <use id="Combined-Shape" fill="#8C65F2" fill-rule="nonzero" xlink:href="#path-1"></use>
                </g>
                <g id="Group-27-Copy-4" transform="translate(0.000000, 60.000000)">
                    <rect id="Rectangle-Copy-21" fill="#EBF4FF" x="0" y="0" width="167" height="44" rx="4"></rect>
                    <path d="M48.544,27.144 C49.972,27.144 50.884,26.508 51.364,25.272 L50.5,24.792 C50.224,25.752 49.504,26.28 48.544,26.28 C47.056,26.28 46.18,25.032 46.18,22.992 C46.18,20.952 47.056,19.704 48.544,19.704 C49.504,19.704 50.224,20.22 50.5,21.192 L51.364,20.7 C50.884,19.476 49.972,18.84 48.544,18.84 C46.6,18.84 45.1,20.316 45.1,22.992 C45.1,25.668 46.6,27.144 48.544,27.144 Z M55.192,27.144 C56.788,27.144 57.88,26.016 57.88,24 C57.88,21.984 56.788,20.856 55.192,20.856 C53.596,20.856 52.504,21.984 52.504,24 C52.504,26.016 53.596,27.144 55.192,27.144 Z M55.192,26.376 C54.088,26.376 53.5,25.548 53.5,24 C53.5,22.452 54.088,21.624 55.192,21.624 C56.296,21.624 56.884,22.452 56.884,24 C56.884,25.548 56.296,26.376 55.192,26.376 Z M60.544,27 L60.544,23.52 C60.544,22.236 61.216,21.72 61.972,21.72 C62.8,21.72 63.136,22.212 63.136,22.98 L63.136,27 L64.12,27 L64.12,23.508 C64.12,22.224 64.804,21.72 65.548,21.72 C66.388,21.72 66.712,22.212 66.712,22.98 L66.712,27 L67.696,27 L67.696,22.728 C67.696,21.504 66.928,20.856 65.848,20.856 C64.984,20.856 64.324,21.336 63.988,22.116 C63.76,21.324 63.124,20.856 62.272,20.856 C61.42,20.856 60.7,21.324 60.412,22.164 L60.292,21 L59.56,21 L59.56,27 L60.544,27 Z M70.48,21 L69.748,21 L69.748,29.376 L70.732,29.376 L70.732,26.196 C70.948,26.7 71.548,27.144 72.436,27.144 C74.044,27.144 75.016,25.788 75.016,24 C75.016,22.212 74.2,20.856 72.496,20.856 C71.60725,20.856 70.8977969,21.4149844 70.6444961,22.0286807 L70.6,22.152 L70.48,21 Z M72.292,26.364 C71.536,26.364 70.732,25.86 70.732,24.648 L70.732,23.58 C70.732,22.224 71.536,21.648 72.292,21.648 C73.372,21.648 74.02,22.404 74.02,24 C74.02,25.596 73.288,26.364 72.292,26.364 Z M78.94,27.144 C80.008,27.144 80.932,26.676 81.208,25.512 L80.356,25.272 C80.176,26.028 79.66,26.364 78.94,26.364 C77.86,26.364 77.26,25.524 77.212,24.18 L81.148,24.18 C81.208,24.024 81.268,23.724 81.268,23.376 C81.268,21.948 80.44,20.856 78.94,20.856 C77.32,20.856 76.264,22.068 76.264,24.024 C76.264,26.052 77.296,27.144 78.94,27.144 Z M80.284,23.46 L77.236,23.46 C77.368,22.296 77.956,21.612 78.916,21.612 C79.816,21.612 80.296,22.308 80.296,23.148 C80.296,23.232 80.296,23.352 80.284,23.46 Z M84.844,27.144 C85.264,27.144 85.732,27 86.08,26.784 L85.9,26.004 C85.564,26.22 85.312,26.316 84.916,26.316 C84.4,26.316 84.04,26.052 84.04,25.392 L84.04,21.756 L85.84,21.756 L85.84,21 L84.04,21 L84.04,19.572 L83.056,19.728 L83.056,21 L82.192,21 L82.192,21.756 L83.056,21.756 L83.056,25.488 C83.056,26.604 83.728,27.144 84.844,27.144 Z M88.024,19.896 C88.432,19.896 88.732,19.584 88.732,19.176 C88.732,18.768 88.432,18.456 88.024,18.456 C87.616,18.456 87.316,18.768 87.316,19.176 C87.316,19.584 87.616,19.896 88.024,19.896 Z M88.516,27 L88.516,21 L87.532,21 L87.532,27 L88.516,27 Z M92.536,27.144 C92.956,27.144 93.424,27 93.772,26.784 L93.592,26.004 C93.256,26.22 93.004,26.316 92.608,26.316 C92.092,26.316 91.732,26.052 91.732,25.392 L91.732,21.756 L93.532,21.756 L93.532,21 L91.732,21 L91.732,19.572 L90.748,19.728 L90.748,21 L89.884,21 L89.884,21.756 L90.748,21.756 L90.748,25.488 C90.748,26.604 91.42,27.144 92.536,27.144 Z M97.48,27.144 C99.076,27.144 100.168,26.016 100.168,24 C100.168,21.984 99.076,20.856 97.48,20.856 C95.884,20.856 94.792,21.984 94.792,24 C94.792,26.016 95.884,27.144 97.48,27.144 Z M97.48,26.376 C96.376,26.376 95.788,25.548 95.788,24 C95.788,22.452 96.376,21.624 97.48,21.624 C98.584,21.624 99.172,22.452 99.172,24 C99.172,25.548 98.584,26.376 97.48,26.376 Z M102.832,27 L102.832,23.964 C102.832,22.656 103.528,21.888 104.476,21.888 C104.644,21.888 104.848,21.9 104.956,21.924 L105.016,20.892 C103.9,20.688 103,21.468 102.76,22.536 L102.628,21 L101.848,21 L101.848,27 L102.832,27 Z M108.124,27.144 C109.396,27.144 110.356,26.508 110.356,25.368 C110.356,22.932 106.936,24.156 106.936,22.584 C106.936,21.972 107.38,21.612 108.112,21.612 C108.904,21.612 109.3,22.02 109.36,22.656 L110.284,22.524 C110.164,21.432 109.42,20.856 108.112,20.856 C106.912,20.856 106.012,21.528 106.012,22.656 C106.012,25.02 109.432,23.856 109.432,25.44 C109.432,26.076 108.904,26.388 108.124,26.388 C107.356,26.388 106.744,25.92 106.648,25.236 L105.748,25.488 C105.928,26.544 106.876,27.144 108.124,27.144 Z M116.032,27 L116.032,21.852 L116.02,20.46 L116.044,20.46 L118.336,25.152 L119.104,25.152 L121.396,20.46 L121.42,20.46 L121.408,21.852 L121.408,27 L122.392,27 L122.392,18.984 L121.24,18.984 L118.768,24.06 L118.744,24.06 L116.272,18.984 L115.048,18.984 L115.048,27 L116.032,27 Z M125.932,27.132 C126.688,27.132 127.432,26.772 127.672,26.112 C127.708,26.292 127.756,26.448 127.828,26.58 C128.008,26.928 128.332,27.12 128.788,27.12 C129.004,27.12 129.292,27.06 129.448,26.952 L129.388,26.22 C129.304,26.292 129.148,26.352 129.016,26.352 C128.74,26.352 128.572,26.208 128.572,25.824 L128.572,22.704 C128.572,21.444 127.78,20.856 126.52,20.856 C125.368,20.856 124.456,21.456 124.324,22.572 L125.284,22.74 C125.308,22.08 125.68,21.66 126.46,21.66 C127.252,21.66 127.648,22.092 127.648,22.812 L127.648,23.52 C127.432,23.508 127.216,23.496 127.084,23.496 C125.032,23.496 124.072,24.252 124.072,25.44 C124.072,26.52 124.876,27.132 125.932,27.132 Z M126.16,26.376 C125.452,26.376 125.044,25.992 125.044,25.404 C125.044,24.588 125.752,24.228 127.084,24.228 C127.288,24.228 127.492,24.24 127.648,24.252 L127.648,24.756 C127.648,25.908 126.904,26.376 126.16,26.376 Z M131.536,21 L130.804,21 L130.804,29.376 L131.788,29.376 L131.788,26.196 C132.004,26.7 132.604,27.144 133.492,27.144 C135.1,27.144 136.072,25.788 136.072,24 C136.072,22.212 135.256,20.856 133.552,20.856 C132.66325,20.856 131.953797,21.4149844 131.700496,22.0286807 L131.656,22.152 L131.536,21 Z M133.348,26.364 C132.592,26.364 131.788,25.86 131.788,24.648 L131.788,23.58 C131.788,22.224 132.592,21.648 133.348,21.648 C134.428,21.648 135.076,22.404 135.076,24 C135.076,25.596 134.344,26.364 133.348,26.364 Z" id="CompetitorsMap" fill="#272C2F" fill-rule="nonzero"></path>
                    <mask id="mask-4" fill="white">
                        <use xlink:href="#path-3"></use>
                    </mask>
                    <use id="Combined-Shape" fill="#8C65F2" xlink:href="#path-3"></use>
                </g>
                <g id="Group-27-Copy-5" transform="translate(7.000000, 116.000000)">
                    <rect id="Rectangle-Copy-21" fill="#EBF4FF" x="0" y="0" width="160" height="44" rx="4"></rect>
                    <path d="M46.624,27 L46.624,23.964 L48.292,23.964 C50.164,23.964 51.1,22.968 51.1,21.468 C51.1,19.968 50.152,18.984 48.292,18.984 L45.616,18.984 L45.616,27 L46.624,27 Z M48.196,23.124 L46.624,23.124 L46.624,19.824 L48.196,19.824 C49.6,19.824 50.032,20.496 50.032,21.468 C50.032,22.44 49.6,23.124 48.196,23.124 Z M54.868,27.144 C56.464,27.144 57.556,26.016 57.556,24 C57.556,21.984 56.464,20.856 54.868,20.856 C53.272,20.856 52.18,21.984 52.18,24 C52.18,26.016 53.272,27.144 54.868,27.144 Z M54.868,26.376 C53.764,26.376 53.176,25.548 53.176,24 C53.176,22.452 53.764,21.624 54.868,21.624 C55.972,21.624 56.56,22.452 56.56,24 C56.56,25.548 55.972,26.376 54.868,26.376 Z M61.012,27.144 C62.284,27.144 63.244,26.508 63.244,25.368 C63.244,22.932 59.824,24.156 59.824,22.584 C59.824,21.972 60.268,21.612 61,21.612 C61.792,21.612 62.188,22.02 62.248,22.656 L63.172,22.524 C63.052,21.432 62.308,20.856 61,20.856 C59.8,20.856 58.9,21.528 58.9,22.656 C58.9,25.02 62.32,23.856 62.32,25.44 C62.32,26.076 61.792,26.388 61.012,26.388 C60.244,26.388 59.632,25.92 59.536,25.236 L58.636,25.488 C58.816,26.544 59.764,27.144 61.012,27.144 Z M65.368,19.896 C65.776,19.896 66.076,19.584 66.076,19.176 C66.076,18.768 65.776,18.456 65.368,18.456 C64.96,18.456 64.66,18.768 64.66,19.176 C64.66,19.584 64.96,19.896 65.368,19.896 Z M65.86,27 L65.86,21 L64.876,21 L64.876,27 L65.86,27 Z M69.88,27.144 C70.3,27.144 70.768,27 71.116,26.784 L70.936,26.004 C70.6,26.22 70.348,26.316 69.952,26.316 C69.436,26.316 69.076,26.052 69.076,25.392 L69.076,21.756 L70.876,21.756 L70.876,21 L69.076,21 L69.076,19.572 L68.092,19.728 L68.092,21 L67.228,21 L67.228,21.756 L68.092,21.756 L68.092,25.488 C68.092,26.604 68.764,27.144 69.88,27.144 Z M73.06,19.896 C73.468,19.896 73.768,19.584 73.768,19.176 C73.768,18.768 73.468,18.456 73.06,18.456 C72.652,18.456 72.352,18.768 72.352,19.176 C72.352,19.584 72.652,19.896 73.06,19.896 Z M73.552,27 L73.552,21 L72.568,21 L72.568,27 L73.552,27 Z M77.92,27.144 C79.516,27.144 80.608,26.016 80.608,24 C80.608,21.984 79.516,20.856 77.92,20.856 C76.324,20.856 75.232,21.984 75.232,24 C75.232,26.016 76.324,27.144 77.92,27.144 Z M77.92,26.376 C76.816,26.376 76.228,25.548 76.228,24 C76.228,22.452 76.816,21.624 77.92,21.624 C79.024,21.624 79.612,22.452 79.612,24 C79.612,25.548 79.024,26.376 77.92,26.376 Z M83.272,27 L83.272,23.52 C83.272,22.212 83.992,21.72 84.844,21.72 C85.648,21.72 86.02,22.224 86.02,22.992 L86.02,27 L87.004,27 L87.004,22.788 C87.004,21.576 86.248,20.856 85.156,20.856 C84.208,20.856 83.476,21.336 83.14,22.164 L83.02,21 L82.288,21 L82.288,27 L83.272,27 Z M89.548,19.896 C89.956,19.896 90.256,19.584 90.256,19.176 C90.256,18.768 89.956,18.456 89.548,18.456 C89.14,18.456 88.84,18.768 88.84,19.176 C88.84,19.584 89.14,19.896 89.548,19.896 Z M90.04,27 L90.04,21 L89.056,21 L89.056,27 L90.04,27 Z M93.136,27 L93.136,23.52 C93.136,22.212 93.856,21.72 94.708,21.72 C95.512,21.72 95.884,22.224 95.884,22.992 L95.884,27 L96.868,27 L96.868,22.788 C96.868,21.576 96.112,20.856 95.02,20.856 C94.072,20.856 93.34,21.336 93.004,22.164 L92.884,21 L92.152,21 L92.152,27 L93.136,27 Z M100.768,29.52 C102.268,29.52 103.864,29.004 103.864,27.492 C103.864,26.484 103.156,25.872 101.872,25.872 L100.204,25.872 C99.832,25.872 99.592,25.728 99.592,25.404 C99.592,25.128 99.748,24.936 100.048,24.804 C100.3,24.864 100.576,24.9 100.864,24.9 C102.256,24.9 103.18,24.132 103.18,22.872 C103.18,22.488 103.096,22.152 102.928,21.864 C103.444,21.756 103.876,21.3 103.972,20.724 L103.06,20.4 C102.988,20.82 102.904,21.228 102.556,21.396 C102.148,21.048 101.56,20.856 100.864,20.856 C99.484,20.856 98.56,21.612 98.56,22.872 C98.56,23.688 98.944,24.3 99.592,24.624 C99.1,24.792 98.764,25.116 98.764,25.608 C98.764,26.016 98.992,26.352 99.424,26.496 C98.62,26.616 98.056,27.108 98.056,27.792 C98.056,29.016 99.376,29.52 100.768,29.52 Z M100.864,24.168 C100.048,24.168 99.508,23.724 99.508,22.872 C99.508,22.032 100.048,21.576 100.864,21.576 C101.692,21.576 102.232,22.032 102.232,22.872 C102.232,23.724 101.692,24.168 100.864,24.168 Z M100.744,28.788 C99.856,28.788 99.004,28.464 99.004,27.708 C99.004,27.12 99.472,26.772 100.12,26.772 L101.824,26.772 C102.604,26.772 102.952,27.084 102.952,27.588 C102.952,28.416 101.944,28.788 100.744,28.788 Z M109.204,27 L109.204,21.852 L109.192,20.46 L109.216,20.46 L111.508,25.152 L112.276,25.152 L114.568,20.46 L114.592,20.46 L114.58,21.852 L114.58,27 L115.564,27 L115.564,18.984 L114.412,18.984 L111.94,24.06 L111.916,24.06 L109.444,18.984 L108.22,18.984 L108.22,27 L109.204,27 Z M119.104,27.132 C119.86,27.132 120.604,26.772 120.844,26.112 C120.88,26.292 120.928,26.448 121,26.58 C121.18,26.928 121.504,27.12 121.96,27.12 C122.176,27.12 122.464,27.06 122.62,26.952 L122.56,26.22 C122.476,26.292 122.32,26.352 122.188,26.352 C121.912,26.352 121.744,26.208 121.744,25.824 L121.744,22.704 C121.744,21.444 120.952,20.856 119.692,20.856 C118.54,20.856 117.628,21.456 117.496,22.572 L118.456,22.74 C118.48,22.08 118.852,21.66 119.632,21.66 C120.424,21.66 120.82,22.092 120.82,22.812 L120.82,23.52 C120.604,23.508 120.388,23.496 120.256,23.496 C118.204,23.496 117.244,24.252 117.244,25.44 C117.244,26.52 118.048,27.132 119.104,27.132 Z M119.332,26.376 C118.624,26.376 118.216,25.992 118.216,25.404 C118.216,24.588 118.924,24.228 120.256,24.228 C120.46,24.228 120.664,24.24 120.82,24.252 L120.82,24.756 C120.82,25.908 120.076,26.376 119.332,26.376 Z M124.708,21 L123.976,21 L123.976,29.376 L124.96,29.376 L124.96,26.196 C125.176,26.7 125.776,27.144 126.664,27.144 C128.272,27.144 129.244,25.788 129.244,24 C129.244,22.212 128.428,20.856 126.724,20.856 C125.83525,20.856 125.125797,21.4149844 124.872496,22.0286807 L124.828,22.152 L124.708,21 Z M126.52,26.364 C125.764,26.364 124.96,25.86 124.96,24.648 L124.96,23.58 C124.96,22.224 125.764,21.648 126.52,21.648 C127.6,21.648 128.248,22.404 128.248,24 C128.248,25.596 127.516,26.364 126.52,26.364 Z" id="PositioningMap" fill="#272C2F" fill-rule="nonzero"></path>
                    <g id="icons/positioning-map" transform="translate(10.000000, 10.000000)">
                        <rect id="Rectangle" x="0" y="0" width="24" height="24"></rect>
                        <mask id="mask-6" fill="white">
                            <use xlink:href="#path-5"></use>
                        </mask>
                        <use id="Combined-Shape" fill="#8C65F2" fill-rule="nonzero" xlink:href="#path-5"></use>
                    </g>
                </g>
                <g id="Group-27-Copy-6" transform="translate(32.000000, 172.000000)">
                    <rect id="Rectangle-Copy-21" fill="#EBF4FF" x="0" y="0" width="135" height="44" rx="4"></rect>
                    <path d="M48.484,27 C50.32,27 51.184,26.124 51.184,24.78 C51.184,23.652 50.476,23.064 49.444,22.944 L49.444,22.92 C50.296,22.776 50.944,22.104 50.944,21.084 C50.944,19.692 49.984,18.984 48.388,18.984 L45.616,18.984 L45.616,27 L48.484,27 Z M48.316,22.584 L46.612,22.584 L46.612,19.836 L48.316,19.836 C49.312,19.836 49.9,20.28 49.9,21.216 C49.9,22.14 49.312,22.584 48.316,22.584 Z M48.448,26.172 L46.612,26.172 L46.612,23.412 L48.448,23.412 C49.576,23.412 50.176,23.892 50.176,24.792 C50.176,25.68 49.576,26.172 48.448,26.172 Z M53.812,27 L53.812,23.964 C53.812,22.656 54.508,21.888 55.456,21.888 C55.624,21.888 55.828,21.9 55.936,21.924 L55.996,20.892 C54.88,20.688 53.98,21.468 53.74,22.536 L53.608,21 L52.828,21 L52.828,27 L53.812,27 Z M58.696,27.132 C59.452,27.132 60.196,26.772 60.436,26.112 C60.472,26.292 60.52,26.448 60.592,26.58 C60.772,26.928 61.096,27.12 61.552,27.12 C61.768,27.12 62.056,27.06 62.212,26.952 L62.152,26.22 C62.068,26.292 61.912,26.352 61.78,26.352 C61.504,26.352 61.336,26.208 61.336,25.824 L61.336,22.704 C61.336,21.444 60.544,20.856 59.284,20.856 C58.132,20.856 57.22,21.456 57.088,22.572 L58.048,22.74 C58.072,22.08 58.444,21.66 59.224,21.66 C60.016,21.66 60.412,22.092 60.412,22.812 L60.412,23.52 C60.196,23.508 59.98,23.496 59.848,23.496 C57.796,23.496 56.836,24.252 56.836,25.44 C56.836,26.52 57.64,27.132 58.696,27.132 Z M58.924,26.376 C58.216,26.376 57.808,25.992 57.808,25.404 C57.808,24.588 58.516,24.228 59.848,24.228 C60.052,24.228 60.256,24.24 60.412,24.252 L60.412,24.756 C60.412,25.908 59.668,26.376 58.924,26.376 Z M64.552,27 L64.552,23.52 C64.552,22.212 65.272,21.72 66.124,21.72 C66.928,21.72 67.3,22.224 67.3,22.992 L67.3,27 L68.284,27 L68.284,22.788 C68.284,21.576 67.528,20.856 66.436,20.856 C65.488,20.856 64.756,21.336 64.42,22.164 L64.3,21 L63.568,21 L63.568,27 L64.552,27 Z M72.352,27.144 C73.204,27.144 73.984,26.772 74.284,25.86 L74.392,27 L75.172,27 L75.172,18.336 L74.188,18.336 L74.188,21.816 C73.984,21.336 73.408,20.856 72.448,20.856 C70.876,20.856 69.904,22.056 69.904,24.096 C69.904,26.148 71.044,27.144 72.352,27.144 Z M72.592,26.352 C71.548,26.352 70.9,25.572 70.9,24.084 C70.9,22.368 71.644,21.636 72.604,21.636 C73.3,21.636 74.188,22.116 74.188,23.328 L74.188,24.444 C74.188,25.824 73.36,26.352 72.592,26.352 Z M83.572,27 L86.416,18.984 L85.396,18.984 L83.032,25.956 L83.008,25.956 L80.644,18.984 L79.588,18.984 L82.42,27 L83.572,27 Z M90.088,27.144 C91.684,27.144 92.776,26.016 92.776,24 C92.776,21.984 91.684,20.856 90.088,20.856 C88.492,20.856 87.4,21.984 87.4,24 C87.4,26.016 88.492,27.144 90.088,27.144 Z M90.088,26.376 C88.984,26.376 88.396,25.548 88.396,24 C88.396,22.452 88.984,21.624 90.088,21.624 C91.192,21.624 91.78,22.452 91.78,24 C91.78,25.548 91.192,26.376 90.088,26.376 Z M94.948,19.896 C95.356,19.896 95.656,19.584 95.656,19.176 C95.656,18.768 95.356,18.456 94.948,18.456 C94.54,18.456 94.24,18.768 94.24,19.176 C94.24,19.584 94.54,19.896 94.948,19.896 Z M95.44,27 L95.44,21 L94.456,21 L94.456,27 L95.44,27 Z M99.796,27.144 C101.02,27.144 101.824,26.448 101.992,25.284 L101.092,25.116 C101.032,25.812 100.576,26.364 99.796,26.364 C98.68,26.364 98.116,25.404 98.116,24 C98.116,22.596 98.68,21.636 99.796,21.636 C100.576,21.636 101.032,22.2 101.092,22.86 L101.992,22.692 C101.872,21.6 101.02,20.856 99.796,20.856 C98.176,20.856 97.12,22.032 97.12,24 C97.12,25.98 98.176,27.144 99.796,27.144 Z M105.808,27.144 C106.876,27.144 107.8,26.676 108.076,25.512 L107.224,25.272 C107.044,26.028 106.528,26.364 105.808,26.364 C104.728,26.364 104.128,25.524 104.08,24.18 L108.016,24.18 C108.076,24.024 108.136,23.724 108.136,23.376 C108.136,21.948 107.308,20.856 105.808,20.856 C104.188,20.856 103.132,22.068 103.132,24.024 C103.132,26.052 104.164,27.144 105.808,27.144 Z M107.152,23.46 L104.104,23.46 C104.236,22.296 104.824,21.612 105.784,21.612 C106.684,21.612 107.164,22.308 107.164,23.148 C107.164,23.232 107.164,23.352 107.152,23.46 Z" id="BrandVoice" fill="#272C2F" fill-rule="nonzero"></path>
                    <g id="icons/exercises-brandvoic-copy-2" transform="translate(10.000000, 10.000000)">
                        <mask id="mask-8" fill="white">
                            <use xlink:href="#path-7"></use>
                        </mask>
                        <use id="Combined-Shape" fill="#272C2F" xlink:href="#path-7"></use>
                        <g id="Group" mask="url(#mask-8)" fill="#8C65F2">
                            <g id="COLOR/-black">
                                <rect id="Purple" x="0" y="0" width="24" height="24"></rect>
                            </g>
                        </g>
                    </g>
                </g>
                <g id="Group-27" transform="translate(147.000000, 228.000000)">
                    <circle id="Oval" fill="#FF4F80" cx="19" cy="19" r="19"></circle>
                    <polygon id="+" fill="#FFFFFF" fill-rule="nonzero" points="20.7414634 26 20.7414634 20.7960976 26 20.7960976 26 17.2039024 20.7414634 17.2039024 20.7414634 12 17.244878 12 17.244878 17.2039024 12 17.2039024 12 20.7960976 17.244878 20.7960976 17.244878 26"></polygon>
                </g>
                <g id="Group-36" transform="translate(197.443651, 115.000000)">
                    <path d="M183.556349,0 C186.870058,-6.08718376e-16 189.556349,2.6862915 189.556349,6 L189.556349,184 C189.556349,187.313708 186.870058,190 183.556349,190 L18.5563492,190 C15.2426407,190 12.5563492,187.313708 12.5563492,184 L12.556,144.556 L-2.00728323e-13,132 L12.556,119.443 L12.5563492,6 C12.5563492,2.6862915 15.2426407,6.08718376e-16 18.5563492,0 L183.556349,0 Z" id="Combined-Shape" stroke="#D4D4D4" fill="#FFFFFF"></path>
                    <g id="Group-68" transform="translate(26.556349, 14.000000)">
                        <path d="M23.124,12 L23.124,8.964 L24.792,8.964 C26.664,8.964 27.6,7.968 27.6,6.468 C27.6,4.968 26.652,3.984 24.792,3.984 L22.116,3.984 L22.116,12 L23.124,12 Z M24.696,8.124 L23.124,8.124 L23.124,4.824 L24.696,4.824 C26.1,4.824 26.532,5.496 26.532,6.468 C26.532,7.44 26.1,8.124 24.696,8.124 Z M30.096,12 L30.096,8.964 C30.096,7.656 30.792,6.888 31.74,6.888 C31.908,6.888 32.112,6.9 32.22,6.924 L32.28,5.892 C31.164,5.688 30.264,6.468 30.024,7.536 L29.892,6 L29.112,6 L29.112,12 L30.096,12 Z M35.868,12.144 C37.464,12.144 38.556,11.016 38.556,9 C38.556,6.984 37.464,5.856 35.868,5.856 C34.272,5.856 33.18,6.984 33.18,9 C33.18,11.016 34.272,12.144 35.868,12.144 Z M35.868,11.376 C34.764,11.376 34.176,10.548 34.176,9 C34.176,7.452 34.764,6.624 35.868,6.624 C36.972,6.624 37.56,7.452 37.56,9 C37.56,10.548 36.972,11.376 35.868,11.376 Z M40.728,4.896 C41.136,4.896 41.436,4.584 41.436,4.176 C41.436,3.768 41.136,3.456 40.728,3.456 C40.32,3.456 40.02,3.768 40.02,4.176 C40.02,4.584 40.32,4.896 40.728,4.896 Z M41.22,12.264 L41.22,6 L40.236,6 L40.236,12.192 C40.236,13.512 39.72,13.872 38.712,13.572 L38.58,14.412 C40.164,14.808 41.22,14.004 41.22,12.264 Z M45.576,12.144 C46.644,12.144 47.568,11.676 47.844,10.512 L46.992,10.272 C46.812,11.028 46.296,11.364 45.576,11.364 C44.496,11.364 43.896,10.524 43.848,9.18 L47.784,9.18 C47.844,9.024 47.904,8.724 47.904,8.376 C47.904,6.948 47.076,5.856 45.576,5.856 C43.956,5.856 42.9,7.068 42.9,9.024 C42.9,11.052 43.932,12.144 45.576,12.144 Z M46.92,8.46 L43.872,8.46 C44.004,7.296 44.592,6.612 45.552,6.612 C46.452,6.612 46.932,7.308 46.932,8.148 C46.932,8.232 46.932,8.352 46.92,8.46 Z M51.816,12.144 C53.04,12.144 53.844,11.448 54.012,10.284 L53.112,10.116 C53.052,10.812 52.596,11.364 51.816,11.364 C50.7,11.364 50.136,10.404 50.136,9 C50.136,7.596 50.7,6.636 51.816,6.636 C52.596,6.636 53.052,7.2 53.112,7.86 L54.012,7.692 C53.892,6.6 53.04,5.856 51.816,5.856 C50.196,5.856 49.14,7.032 49.14,9 C49.14,10.98 50.196,12.144 51.816,12.144 Z M57.492,12.144 C57.912,12.144 58.38,12 58.728,11.784 L58.548,11.004 C58.212,11.22 57.96,11.316 57.564,11.316 C57.048,11.316 56.688,11.052 56.688,10.392 L56.688,6.756 L58.488,6.756 L58.488,6 L56.688,6 L56.688,4.572 L55.704,4.728 L55.704,6 L54.84,6 L54.84,6.756 L55.704,6.756 L55.704,10.488 C55.704,11.604 56.376,12.144 57.492,12.144 Z M66.252,12.144 C68.364,12.144 69.78,10.572 69.78,7.992 C69.78,5.412 68.364,3.84 66.252,3.84 C64.14,3.84 62.724,5.412 62.724,7.992 C62.724,10.572 64.14,12.144 66.252,12.144 Z M66.252,11.292 C64.668,11.292 63.804,9.948 63.804,7.992 C63.804,6.036 64.668,4.692 66.252,4.692 C67.836,4.692 68.7,6.036 68.7,7.992 C68.7,9.948 67.836,11.292 66.252,11.292 Z M73.908,12 L76.104,6 L75.12,6 L73.44,10.956 L73.416,10.956 L71.748,6 L70.704,6 L72.9,12 L73.908,12 Z M79.728,12.144 C80.796,12.144 81.72,11.676 81.996,10.512 L81.144,10.272 C80.964,11.028 80.448,11.364 79.728,11.364 C78.648,11.364 78.048,10.524 78,9.18 L81.936,9.18 C81.996,9.024 82.056,8.724 82.056,8.376 C82.056,6.948 81.228,5.856 79.728,5.856 C78.108,5.856 77.052,7.068 77.052,9.024 C77.052,11.052 78.084,12.144 79.728,12.144 Z M81.072,8.46 L78.024,8.46 C78.156,7.296 78.744,6.612 79.704,6.612 C80.604,6.612 81.084,7.308 81.084,8.148 C81.084,8.232 81.084,8.352 81.072,8.46 Z M84.708,12 L84.708,8.964 C84.708,7.656 85.404,6.888 86.352,6.888 C86.52,6.888 86.724,6.9 86.832,6.924 L86.892,5.892 C85.776,5.688 84.876,6.468 84.636,7.536 L84.504,6 L83.724,6 L83.724,12 L84.708,12 Z M90.696,12 L92.892,6 L91.908,6 L90.228,10.956 L90.204,10.956 L88.536,6 L87.492,6 L89.688,12 L90.696,12 Z M94.764,4.896 C95.172,4.896 95.472,4.584 95.472,4.176 C95.472,3.768 95.172,3.456 94.764,3.456 C94.356,3.456 94.056,3.768 94.056,4.176 C94.056,4.584 94.356,4.896 94.764,4.896 Z M95.256,12 L95.256,6 L94.272,6 L94.272,12 L95.256,12 Z M99.612,12.144 C100.68,12.144 101.604,11.676 101.88,10.512 L101.028,10.272 C100.848,11.028 100.332,11.364 99.612,11.364 C98.532,11.364 97.932,10.524 97.884,9.18 L101.82,9.18 C101.88,9.024 101.94,8.724 101.94,8.376 C101.94,6.948 101.112,5.856 99.612,5.856 C97.992,5.856 96.936,7.068 96.936,9.024 C96.936,11.052 97.968,12.144 99.612,12.144 Z M100.956,8.46 L97.908,8.46 C98.04,7.296 98.628,6.612 99.588,6.612 C100.488,6.612 100.968,7.308 100.968,8.148 C100.968,8.232 100.968,8.352 100.956,8.46 Z M105.54,12 L106.788,7.272 L106.812,7.272 L108.06,12 L109.02,12 L110.724,6 L109.776,6 L108.528,10.824 L108.504,10.824 L107.256,6 L106.368,6 L105.12,10.824 L105.096,10.824 L103.848,6 L102.876,6 L104.58,12 L105.54,12 Z" id="ProjectOverview" fill="#696F73" fill-rule="nonzero"></path>
                        <mask id="mask-10" fill="white">
                            <use xlink:href="#path-9"></use>
                        </mask>
                        <use id="Combined-Shape" fill="#8C65F2" fill-rule="nonzero" xlink:href="#path-9"></use>
                    </g>
                    <g id="Group-68-Copy-3" transform="translate(25.556349, 111.000000)">
                        <path d="M24.124,11 L24.124,7.604 L25.792,7.604 C26.716,7.604 27.22,7.844 27.448,8.816 L27.796,10.28 C27.856,10.556 27.94,10.784 28.12,11 L29.212,11 C29.032,10.772 28.876,10.484 28.804,10.184 L28.408,8.564 C28.204,7.724 27.76,7.352 26.992,7.256 L26.992,7.232 C27.976,7.196 28.876,6.464 28.876,5.216 C28.876,3.848 28.072,2.984 26.224,2.984 L23.116,2.984 L23.116,11 L24.124,11 Z M26.212,6.752 L24.124,6.752 L24.124,3.836 L26.2,3.836 C27.304,3.836 27.796,4.364 27.796,5.264 C27.796,6.236 27.304,6.752 26.212,6.752 Z M32.164,11.132 C32.92,11.132 33.664,10.772 33.904,10.112 C33.94,10.292 33.988,10.448 34.06,10.58 C34.24,10.928 34.564,11.12 35.02,11.12 C35.236,11.12 35.524,11.06 35.68,10.952 L35.62,10.22 C35.536,10.292 35.38,10.352 35.248,10.352 C34.972,10.352 34.804,10.208 34.804,9.824 L34.804,6.704 C34.804,5.444 34.012,4.856 32.752,4.856 C31.6,4.856 30.688,5.456 30.556,6.572 L31.516,6.74 C31.54,6.08 31.912,5.66 32.692,5.66 C33.484,5.66 33.88,6.092 33.88,6.812 L33.88,7.52 C33.664,7.508 33.448,7.496 33.316,7.496 C31.264,7.496 30.304,8.252 30.304,9.44 C30.304,10.52 31.108,11.132 32.164,11.132 Z M32.392,10.376 C31.684,10.376 31.276,9.992 31.276,9.404 C31.276,8.588 31.984,8.228 33.316,8.228 C33.52,8.228 33.724,8.24 33.88,8.252 L33.88,8.756 C33.88,9.908 33.136,10.376 32.392,10.376 Z M38.944,11.144 C39.364,11.144 39.832,11 40.18,10.784 L40,10.004 C39.664,10.22 39.412,10.316 39.016,10.316 C38.5,10.316 38.14,10.052 38.14,9.392 L38.14,5.756 L39.94,5.756 L39.94,5 L38.14,5 L38.14,3.572 L37.156,3.728 L37.156,5 L36.292,5 L36.292,5.756 L37.156,5.756 L37.156,9.488 C37.156,10.604 37.828,11.144 38.944,11.144 Z M42.124,3.896 C42.532,3.896 42.832,3.584 42.832,3.176 C42.832,2.768 42.532,2.456 42.124,2.456 C41.716,2.456 41.416,2.768 41.416,3.176 C41.416,3.584 41.716,3.896 42.124,3.896 Z M42.616,11 L42.616,5 L41.632,5 L41.632,11 L42.616,11 Z M46.984,11.144 C48.58,11.144 49.672,10.016 49.672,8 C49.672,5.984 48.58,4.856 46.984,4.856 C45.388,4.856 44.296,5.984 44.296,8 C44.296,10.016 45.388,11.144 46.984,11.144 Z M46.984,10.376 C45.88,10.376 45.292,9.548 45.292,8 C45.292,6.452 45.88,5.624 46.984,5.624 C48.088,5.624 48.676,6.452 48.676,8 C48.676,9.548 48.088,10.376 46.984,10.376 Z M52.336,11 L52.336,7.52 C52.336,6.212 53.056,5.72 53.908,5.72 C54.712,5.72 55.084,6.224 55.084,6.992 L55.084,11 L56.068,11 L56.068,6.788 C56.068,5.576 55.312,4.856 54.22,4.856 C53.272,4.856 52.54,5.336 52.204,6.164 L52.084,5 L51.352,5 L51.352,11 L52.336,11 Z M59.488,11.132 C60.244,11.132 60.988,10.772 61.228,10.112 C61.264,10.292 61.312,10.448 61.384,10.58 C61.564,10.928 61.888,11.12 62.344,11.12 C62.56,11.12 62.848,11.06 63.004,10.952 L62.944,10.22 C62.86,10.292 62.704,10.352 62.572,10.352 C62.296,10.352 62.128,10.208 62.128,9.824 L62.128,6.704 C62.128,5.444 61.336,4.856 60.076,4.856 C58.924,4.856 58.012,5.456 57.88,6.572 L58.84,6.74 C58.864,6.08 59.236,5.66 60.016,5.66 C60.808,5.66 61.204,6.092 61.204,6.812 L61.204,7.52 C60.988,7.508 60.772,7.496 60.64,7.496 C58.588,7.496 57.628,8.252 57.628,9.44 C57.628,10.52 58.432,11.132 59.488,11.132 Z M59.716,10.376 C59.008,10.376 58.6,9.992 58.6,9.404 C58.6,8.588 59.308,8.228 60.64,8.228 C60.844,8.228 61.048,8.24 61.204,8.252 L61.204,8.756 C61.204,9.908 60.46,10.376 59.716,10.376 Z M65.524,11.12 C65.848,11.12 66.208,11.036 66.436,10.904 L66.328,10.148 C66.16,10.268 65.968,10.316 65.788,10.316 C65.416,10.316 65.248,10.136 65.248,9.764 L65.248,2.336 L64.264,2.336 L64.264,9.872 C64.264,10.76 64.768,11.12 65.524,11.12 Z M76.204,13.016 L76.396,12.14 C75.352,12.26 74.62,11.96 74.404,11.12 C76.252,10.904 77.464,9.38 77.464,6.992 C77.464,4.412 76.048,2.84 73.936,2.84 C71.824,2.84 70.408,4.412 70.408,6.992 C70.408,9.344 71.584,10.856 73.396,11.108 C73.576,12.284 74.476,13.16 76.204,13.016 Z M73.936,10.292 C72.352,10.292 71.488,8.948 71.488,6.992 C71.488,5.036 72.352,3.692 73.936,3.692 C75.52,3.692 76.384,5.036 76.384,6.992 C76.384,8.948 75.52,10.292 73.936,10.292 Z M80.908,11.144 C81.82,11.144 82.516,10.724 82.804,9.86 L82.924,11 L83.704,11 L83.704,5 L82.708,5 L82.708,8.48 C82.708,9.788 82.024,10.352 81.184,10.352 C80.464,10.352 80.044,9.884 80.044,9.116 L80.044,5 L79.06,5 L79.06,9.224 C79.06,10.532 79.924,11.144 80.908,11.144 Z M88.06,11.144 C89.128,11.144 90.052,10.676 90.328,9.512 L89.476,9.272 C89.296,10.028 88.78,10.364 88.06,10.364 C86.98,10.364 86.38,9.524 86.332,8.18 L90.268,8.18 C90.328,8.024 90.388,7.724 90.388,7.376 C90.388,5.948 89.56,4.856 88.06,4.856 C86.44,4.856 85.384,6.068 85.384,8.024 C85.384,10.052 86.416,11.144 88.06,11.144 Z M89.404,7.46 L86.356,7.46 C86.488,6.296 87.076,5.612 88.036,5.612 C88.936,5.612 89.416,6.308 89.416,7.148 C89.416,7.232 89.416,7.352 89.404,7.46 Z M93.832,11.144 C95.104,11.144 96.064,10.508 96.064,9.368 C96.064,6.932 92.644,8.156 92.644,6.584 C92.644,5.972 93.088,5.612 93.82,5.612 C94.612,5.612 95.008,6.02 95.068,6.656 L95.992,6.524 C95.872,5.432 95.128,4.856 93.82,4.856 C92.62,4.856 91.72,5.528 91.72,6.656 C91.72,9.02 95.14,7.856 95.14,9.44 C95.14,10.076 94.612,10.388 93.832,10.388 C93.064,10.388 92.452,9.92 92.356,9.236 L91.456,9.488 C91.636,10.544 92.584,11.144 93.832,11.144 Z M99.604,11.144 C100.024,11.144 100.492,11 100.84,10.784 L100.66,10.004 C100.324,10.22 100.072,10.316 99.676,10.316 C99.16,10.316 98.8,10.052 98.8,9.392 L98.8,5.756 L100.6,5.756 L100.6,5 L98.8,5 L98.8,3.572 L97.816,3.728 L97.816,5 L96.952,5 L96.952,5.756 L97.816,5.756 L97.816,9.488 C97.816,10.604 98.488,11.144 99.604,11.144 Z M102.784,3.896 C103.192,3.896 103.492,3.584 103.492,3.176 C103.492,2.768 103.192,2.456 102.784,2.456 C102.376,2.456 102.076,2.768 102.076,3.176 C102.076,3.584 102.376,3.896 102.784,3.896 Z M103.276,11 L103.276,5 L102.292,5 L102.292,11 L103.276,11 Z M107.644,11.144 C109.24,11.144 110.332,10.016 110.332,8 C110.332,5.984 109.24,4.856 107.644,4.856 C106.048,4.856 104.956,5.984 104.956,8 C104.956,10.016 106.048,11.144 107.644,11.144 Z M107.644,10.376 C106.54,10.376 105.952,9.548 105.952,8 C105.952,6.452 106.54,5.624 107.644,5.624 C108.748,5.624 109.336,6.452 109.336,8 C109.336,9.548 108.748,10.376 107.644,10.376 Z M112.996,11 L112.996,7.52 C112.996,6.212 113.716,5.72 114.568,5.72 C115.372,5.72 115.744,6.224 115.744,6.992 L115.744,11 L116.728,11 L116.728,6.788 C116.728,5.576 115.972,4.856 114.88,4.856 C113.932,4.856 113.2,5.336 112.864,6.164 L112.744,5 L112.012,5 L112.012,11 L112.996,11 Z M120.556,11.144 C121.828,11.144 122.788,10.508 122.788,9.368 C122.788,6.932 119.368,8.156 119.368,6.584 C119.368,5.972 119.812,5.612 120.544,5.612 C121.336,5.612 121.732,6.02 121.792,6.656 L122.716,6.524 C122.596,5.432 121.852,4.856 120.544,4.856 C119.344,4.856 118.444,5.528 118.444,6.656 C118.444,9.02 121.864,7.856 121.864,9.44 C121.864,10.076 121.336,10.388 120.556,10.388 C119.788,10.388 119.176,9.92 119.08,9.236 L118.18,9.488 C118.36,10.544 119.308,11.144 120.556,11.144 Z" id="RationalQuestions" fill="#696F73" fill-rule="nonzero"></path>
                        <g id="Color/Color/-black" transform="translate(0.333333, 0.333333)">
                            <mask id="mask-12" fill="white">
                                <use xlink:href="#path-11"></use>
                            </mask>
                            <use id="Mask" fill="#272C2F" fill-rule="nonzero" xlink:href="#path-11"></use>
                            <g id="Group" mask="url(#mask-12)">
                                <g transform="translate(-1.333333, -1.333333)" id="Color/Color/-black">
                                    <rect id="Purple" fill="#8C65F2" x="0" y="0" width="16" height="16"></rect>
                                </g>
                            </g>
                        </g>
                    </g>
                    <g id="Group-68-Copy" transform="translate(24.556349, 46.000000)">
                        <path d="M26.516,12 L28.196,5.364 L28.232,5.364 L29.912,12 L30.98,12 L33.068,3.984 L32.072,3.984 L30.44,10.716 L30.392,10.716 L28.76,3.984 L27.692,3.984 L26.06,10.716 L26.024,10.716 L24.38,3.984 L23.36,3.984 L25.448,12 L26.516,12 Z M36.728,12.144 C37.796,12.144 38.72,11.676 38.996,10.512 L38.144,10.272 C37.964,11.028 37.448,11.364 36.728,11.364 C35.648,11.364 35.048,10.524 35,9.18 L38.936,9.18 C38.996,9.024 39.056,8.724 39.056,8.376 C39.056,6.948 38.228,5.856 36.728,5.856 C35.108,5.856 34.052,7.068 34.052,9.024 C34.052,11.052 35.084,12.144 36.728,12.144 Z M38.072,8.46 L35.024,8.46 C35.156,7.296 35.744,6.612 36.704,6.612 C37.604,6.612 38.084,7.308 38.084,8.148 C38.084,8.232 38.084,8.352 38.072,8.46 Z M41.708,3.336 L40.724,3.336 L40.724,12 L41.504,12 L41.6,10.86 C41.792,11.676 42.524,12.144 43.412,12.144 C45.02,12.144 45.992,10.788 45.992,9 C45.992,7.212 45.176,5.856 43.472,5.856 C42.7216,5.856 42.03392,6.24277333 41.760192,6.85046044 L41.708,6.983 L41.708,3.336 Z M43.268,11.364 C42.512,11.364 41.708,10.86 41.708,9.48 L41.708,8.592 C41.708,7.224 42.512,6.648 43.268,6.648 C44.348,6.648 44.996,7.404 44.996,9 C44.996,10.596 44.264,11.364 43.268,11.364 Z M49.448,12.144 C50.72,12.144 51.68,11.508 51.68,10.368 C51.68,7.932 48.26,9.156 48.26,7.584 C48.26,6.972 48.704,6.612 49.436,6.612 C50.228,6.612 50.624,7.02 50.684,7.656 L51.608,7.524 C51.488,6.432 50.744,5.856 49.436,5.856 C48.236,5.856 47.336,6.528 47.336,7.656 C47.336,10.02 50.756,8.856 50.756,10.44 C50.756,11.076 50.228,11.388 49.448,11.388 C48.68,11.388 48.068,10.92 47.972,10.236 L47.072,10.488 C47.252,11.544 48.2,12.144 49.448,12.144 Z M53.804,4.896 C54.212,4.896 54.512,4.584 54.512,4.176 C54.512,3.768 54.212,3.456 53.804,3.456 C53.396,3.456 53.096,3.768 53.096,4.176 C53.096,4.584 53.396,4.896 53.804,4.896 Z M54.296,12 L54.296,6 L53.312,6 L53.312,12 L54.296,12 Z M58.316,12.144 C58.736,12.144 59.204,12 59.552,11.784 L59.372,11.004 C59.036,11.22 58.784,11.316 58.388,11.316 C57.872,11.316 57.512,11.052 57.512,10.392 L57.512,6.756 L59.312,6.756 L59.312,6 L57.512,6 L57.512,4.572 L56.528,4.728 L56.528,6 L55.664,6 L55.664,6.756 L56.528,6.756 L56.528,10.488 C56.528,11.604 57.2,12.144 58.316,12.144 Z M63.248,12.144 C64.316,12.144 65.24,11.676 65.516,10.512 L64.664,10.272 C64.484,11.028 63.968,11.364 63.248,11.364 C62.168,11.364 61.568,10.524 61.52,9.18 L65.456,9.18 C65.516,9.024 65.576,8.724 65.576,8.376 C65.576,6.948 64.748,5.856 63.248,5.856 C61.628,5.856 60.572,7.068 60.572,9.024 C60.572,11.052 61.604,12.144 63.248,12.144 Z M64.592,8.46 L61.544,8.46 C61.676,7.296 62.264,6.612 63.224,6.612 C64.124,6.612 64.604,7.308 64.604,8.148 C64.604,8.232 64.604,8.352 64.592,8.46 Z M72.596,12.144 C74.108,12.144 75.344,11.328 75.344,9.876 C75.344,6.828 70.904,8.16 70.904,6.06 C70.904,5.232 71.576,4.668 72.596,4.668 C73.58,4.668 74.252,5.268 74.36,6.192 L75.296,5.988 C75.116,4.488 74.048,3.84 72.584,3.84 C71.096,3.84 69.932,4.74 69.932,6.108 C69.932,9.072 74.372,7.812 74.372,9.912 C74.372,10.86 73.568,11.316 72.596,11.316 C71.516,11.316 70.652,10.632 70.496,9.504 L69.572,9.792 C69.788,11.256 70.952,12.144 72.596,12.144 Z M77.756,6 L77.024,6 L77.024,14.376 L78.008,14.376 L78.008,11.196 C78.224,11.7 78.824,12.144 79.712,12.144 C81.32,12.144 82.292,10.788 82.292,9 C82.292,7.212 81.476,5.856 79.772,5.856 C78.88325,5.856 78.1737969,6.41498438 77.9204961,7.02868066 L77.876,7.152 L77.756,6 Z M79.568,11.364 C78.812,11.364 78.008,10.86 78.008,9.648 L78.008,8.58 C78.008,7.224 78.812,6.648 79.568,6.648 C80.648,6.648 81.296,7.404 81.296,9 C81.296,10.596 80.564,11.364 79.568,11.364 Z M86.216,12.144 C87.284,12.144 88.208,11.676 88.484,10.512 L87.632,10.272 C87.452,11.028 86.936,11.364 86.216,11.364 C85.136,11.364 84.536,10.524 84.488,9.18 L88.424,9.18 C88.484,9.024 88.544,8.724 88.544,8.376 C88.544,6.948 87.716,5.856 86.216,5.856 C84.596,5.856 83.54,7.068 83.54,9.024 C83.54,11.052 84.572,12.144 86.216,12.144 Z M87.56,8.46 L84.512,8.46 C84.644,7.296 85.232,6.612 86.192,6.612 C87.092,6.612 87.572,7.308 87.572,8.148 C87.572,8.232 87.572,8.352 87.56,8.46 Z M92.456,12.144 C93.68,12.144 94.484,11.448 94.652,10.284 L93.752,10.116 C93.692,10.812 93.236,11.364 92.456,11.364 C91.34,11.364 90.776,10.404 90.776,9 C90.776,7.596 91.34,6.636 92.456,6.636 C93.236,6.636 93.692,7.2 93.752,7.86 L94.652,7.692 C94.532,6.6 93.68,5.856 92.456,5.856 C90.836,5.856 89.78,7.032 89.78,9 C89.78,10.98 90.836,12.144 92.456,12.144 Z M96.716,4.896 C97.124,4.896 97.424,4.584 97.424,4.176 C97.424,3.768 97.124,3.456 96.716,3.456 C96.308,3.456 96.008,3.768 96.008,4.176 C96.008,4.584 96.308,4.896 96.716,4.896 Z M97.208,12 L97.208,6 L96.224,6 L96.224,12 L97.208,12 Z M100.484,12 L100.484,6.756 L102.02,6.756 L102.02,6 L100.484,6 L100.484,5.34 C100.484,4.5 100.856,4.008 101.552,4.008 C101.924,4.008 102.14,4.092 102.404,4.296 L102.632,3.468 C102.308,3.3 101.96,3.192 101.528,3.192 C100.376,3.192 99.5,4.008 99.5,5.316 L99.5,6 L98.624,6 L98.624,6.756 L99.5,6.756 L99.5,12 L100.484,12 Z M103.7,4.896 C104.108,4.896 104.408,4.584 104.408,4.176 C104.408,3.768 104.108,3.456 103.7,3.456 C103.292,3.456 102.992,3.768 102.992,4.176 C102.992,4.584 103.292,4.896 103.7,4.896 Z M104.192,12 L104.192,6 L103.208,6 L103.208,12 L104.192,12 Z M108.548,12.144 C109.772,12.144 110.576,11.448 110.744,10.284 L109.844,10.116 C109.784,10.812 109.328,11.364 108.548,11.364 C107.432,11.364 106.868,10.404 106.868,9 C106.868,7.596 107.432,6.636 108.548,6.636 C109.328,6.636 109.784,7.2 109.844,7.86 L110.744,7.692 C110.624,6.6 109.772,5.856 108.548,5.856 C106.928,5.856 105.872,7.032 105.872,9 C105.872,10.98 106.928,12.144 108.548,12.144 Z M113.684,12.132 C114.44,12.132 115.184,11.772 115.424,11.112 C115.46,11.292 115.508,11.448 115.58,11.58 C115.76,11.928 116.084,12.12 116.54,12.12 C116.756,12.12 117.044,12.06 117.2,11.952 L117.14,11.22 C117.056,11.292 116.9,11.352 116.768,11.352 C116.492,11.352 116.324,11.208 116.324,10.824 L116.324,7.704 C116.324,6.444 115.532,5.856 114.272,5.856 C113.12,5.856 112.208,6.456 112.076,7.572 L113.036,7.74 C113.06,7.08 113.432,6.66 114.212,6.66 C115.004,6.66 115.4,7.092 115.4,7.812 L115.4,8.52 C115.184,8.508 114.968,8.496 114.836,8.496 C112.784,8.496 111.824,9.252 111.824,10.44 C111.824,11.52 112.628,12.132 113.684,12.132 Z M113.912,11.376 C113.204,11.376 112.796,10.992 112.796,10.404 C112.796,9.588 113.504,9.228 114.836,9.228 C115.04,9.228 115.244,9.24 115.4,9.252 L115.4,9.756 C115.4,10.908 114.656,11.376 113.912,11.376 Z M120.464,12.144 C120.884,12.144 121.352,12 121.7,11.784 L121.52,11.004 C121.184,11.22 120.932,11.316 120.536,11.316 C120.02,11.316 119.66,11.052 119.66,10.392 L119.66,6.756 L121.46,6.756 L121.46,6 L119.66,6 L119.66,4.572 L118.676,4.728 L118.676,6 L117.812,6 L117.812,6.756 L118.676,6.756 L118.676,10.488 C118.676,11.604 119.348,12.144 120.464,12.144 Z M123.644,4.896 C124.052,4.896 124.352,4.584 124.352,4.176 C124.352,3.768 124.052,3.456 123.644,3.456 C123.236,3.456 122.936,3.768 122.936,4.176 C122.936,4.584 123.236,4.896 123.644,4.896 Z M124.136,12 L124.136,6 L123.152,6 L123.152,12 L124.136,12 Z M128.504,12.144 C130.1,12.144 131.192,11.016 131.192,9 C131.192,6.984 130.1,5.856 128.504,5.856 C126.908,5.856 125.816,6.984 125.816,9 C125.816,11.016 126.908,12.144 128.504,12.144 Z M128.504,11.376 C127.4,11.376 126.812,10.548 126.812,9 C126.812,7.452 127.4,6.624 128.504,6.624 C129.608,6.624 130.196,7.452 130.196,9 C130.196,10.548 129.608,11.376 128.504,11.376 Z M133.856,12 L133.856,8.52 C133.856,7.212 134.576,6.72 135.428,6.72 C136.232,6.72 136.604,7.224 136.604,7.992 L136.604,12 L137.588,12 L137.588,7.788 C137.588,6.576 136.832,5.856 135.74,5.856 C134.792,5.856 134.06,6.336 133.724,7.164 L133.604,6 L132.872,6 L132.872,12 L133.856,12 Z M141.416,12.144 C142.688,12.144 143.648,11.508 143.648,10.368 C143.648,7.932 140.228,9.156 140.228,7.584 C140.228,6.972 140.672,6.612 141.404,6.612 C142.196,6.612 142.592,7.02 142.652,7.656 L143.576,7.524 C143.456,6.432 142.712,5.856 141.404,5.856 C140.204,5.856 139.304,6.528 139.304,7.656 C139.304,10.02 142.724,8.856 142.724,10.44 C142.724,11.076 142.196,11.388 141.416,11.388 C140.648,11.388 140.036,10.92 139.94,10.236 L139.04,10.488 C139.22,11.544 140.168,12.144 141.416,12.144 Z" id="WebsiteSpecifications" fill="#696F73" fill-rule="nonzero"></path>
                        <mask id="mask-14" fill="white">
                            <use xlink:href="#path-13"></use>
                        </mask>
                        <use id="Combined-Shape" fill="#8C65F2" fill-rule="nonzero" xlink:href="#path-13"></use>
                    </g>
                    <g id="Group-68-Copy-4" transform="translate(27.556349, 140.000000)">
                        <path d="M21.356,14 L22.16,11.756 L25.568,11.756 L26.384,14 L27.404,14 L24.44,5.984 L23.324,5.984 L20.36,14 L21.356,14 Z M25.268,10.904 L22.472,10.904 L23.852,7.076 L23.876,7.076 L25.268,10.904 Z M29.552,8 L28.82,8 L28.82,16.376 L29.804,16.376 L29.804,13.196 C30.02,13.7 30.62,14.144 31.508,14.144 C33.116,14.144 34.088,12.788 34.088,11 C34.088,9.212 33.272,7.856 31.568,7.856 C30.67925,7.856 29.9697969,8.41498438 29.7164961,9.02868066 L29.672,9.152 L29.552,8 Z M31.364,13.364 C30.608,13.364 29.804,12.86 29.804,11.648 L29.804,10.58 C29.804,9.224 30.608,8.648 31.364,8.648 C32.444,8.648 33.092,9.404 33.092,11 C33.092,12.596 32.36,13.364 31.364,13.364 Z M36.5,8 L35.768,8 L35.768,16.376 L36.752,16.376 L36.752,13.196 C36.968,13.7 37.568,14.144 38.456,14.144 C40.064,14.144 41.036,12.788 41.036,11 C41.036,9.212 40.22,7.856 38.516,7.856 C37.62725,7.856 36.9177969,8.41498438 36.6644961,9.02868066 L36.62,9.152 L36.5,8 Z M38.312,13.364 C37.556,13.364 36.752,12.86 36.752,11.648 L36.752,10.58 C36.752,9.224 37.556,8.648 38.312,8.648 C39.392,8.648 40.04,9.404 40.04,11 C40.04,12.596 39.308,13.364 38.312,13.364 Z M48.068,14.144 C49.58,14.144 50.816,13.328 50.816,11.876 C50.816,8.828 46.376,10.16 46.376,8.06 C46.376,7.232 47.048,6.668 48.068,6.668 C49.052,6.668 49.724,7.268 49.832,8.192 L50.768,7.988 C50.588,6.488 49.52,5.84 48.056,5.84 C46.568,5.84 45.404,6.74 45.404,8.108 C45.404,11.072 49.844,9.812 49.844,11.912 C49.844,12.86 49.04,13.316 48.068,13.316 C46.988,13.316 46.124,12.632 45.968,11.504 L45.044,11.792 C45.26,13.256 46.424,14.144 48.068,14.144 Z M53.228,8 L52.496,8 L52.496,16.376 L53.48,16.376 L53.48,13.196 C53.696,13.7 54.296,14.144 55.184,14.144 C56.792,14.144 57.764,12.788 57.764,11 C57.764,9.212 56.948,7.856 55.244,7.856 C54.35525,7.856 53.6457969,8.41498438 53.3924961,9.02868066 L53.348,9.152 L53.228,8 Z M55.04,13.364 C54.284,13.364 53.48,12.86 53.48,11.648 L53.48,10.58 C53.48,9.224 54.284,8.648 55.04,8.648 C56.12,8.648 56.768,9.404 56.768,11 C56.768,12.596 56.036,13.364 55.04,13.364 Z M61.688,14.144 C62.756,14.144 63.68,13.676 63.956,12.512 L63.104,12.272 C62.924,13.028 62.408,13.364 61.688,13.364 C60.608,13.364 60.008,12.524 59.96,11.18 L63.896,11.18 C63.956,11.024 64.016,10.724 64.016,10.376 C64.016,8.948 63.188,7.856 61.688,7.856 C60.068,7.856 59.012,9.068 59.012,11.024 C59.012,13.052 60.044,14.144 61.688,14.144 Z M63.032,10.46 L59.984,10.46 C60.116,9.296 60.704,8.612 61.664,8.612 C62.564,8.612 63.044,9.308 63.044,10.148 C63.044,10.232 63.044,10.352 63.032,10.46 Z M67.928,14.144 C69.152,14.144 69.956,13.448 70.124,12.284 L69.224,12.116 C69.164,12.812 68.708,13.364 67.928,13.364 C66.812,13.364 66.248,12.404 66.248,11 C66.248,9.596 66.812,8.636 67.928,8.636 C68.708,8.636 69.164,9.2 69.224,9.86 L70.124,9.692 C70.004,8.6 69.152,7.856 67.928,7.856 C66.308,7.856 65.252,9.032 65.252,11 C65.252,12.98 66.308,14.144 67.928,14.144 Z M72.188,6.896 C72.596,6.896 72.896,6.584 72.896,6.176 C72.896,5.768 72.596,5.456 72.188,5.456 C71.78,5.456 71.48,5.768 71.48,6.176 C71.48,6.584 71.78,6.896 72.188,6.896 Z M72.68,14 L72.68,8 L71.696,8 L71.696,14 L72.68,14 Z M75.956,14 L75.956,8.756 L77.492,8.756 L77.492,8 L75.956,8 L75.956,7.34 C75.956,6.5 76.328,6.008 77.024,6.008 C77.396,6.008 77.612,6.092 77.876,6.296 L78.104,5.468 C77.78,5.3 77.432,5.192 77,5.192 C75.848,5.192 74.972,6.008 74.972,7.316 L74.972,8 L74.096,8 L74.096,8.756 L74.972,8.756 L74.972,14 L75.956,14 Z M79.172,6.896 C79.58,6.896 79.88,6.584 79.88,6.176 C79.88,5.768 79.58,5.456 79.172,5.456 C78.764,5.456 78.464,5.768 78.464,6.176 C78.464,6.584 78.764,6.896 79.172,6.896 Z M79.664,14 L79.664,8 L78.68,8 L78.68,14 L79.664,14 Z M84.02,14.144 C85.244,14.144 86.048,13.448 86.216,12.284 L85.316,12.116 C85.256,12.812 84.8,13.364 84.02,13.364 C82.904,13.364 82.34,12.404 82.34,11 C82.34,9.596 82.904,8.636 84.02,8.636 C84.8,8.636 85.256,9.2 85.316,9.86 L86.216,9.692 C86.096,8.6 85.244,7.856 84.02,7.856 C82.4,7.856 81.344,9.032 81.344,11 C81.344,12.98 82.4,14.144 84.02,14.144 Z M89.156,14.132 C89.912,14.132 90.656,13.772 90.896,13.112 C90.932,13.292 90.98,13.448 91.052,13.58 C91.232,13.928 91.556,14.12 92.012,14.12 C92.228,14.12 92.516,14.06 92.672,13.952 L92.612,13.22 C92.528,13.292 92.372,13.352 92.24,13.352 C91.964,13.352 91.796,13.208 91.796,12.824 L91.796,9.704 C91.796,8.444 91.004,7.856 89.744,7.856 C88.592,7.856 87.68,8.456 87.548,9.572 L88.508,9.74 C88.532,9.08 88.904,8.66 89.684,8.66 C90.476,8.66 90.872,9.092 90.872,9.812 L90.872,10.52 C90.656,10.508 90.44,10.496 90.308,10.496 C88.256,10.496 87.296,11.252 87.296,12.44 C87.296,13.52 88.1,14.132 89.156,14.132 Z M89.384,13.376 C88.676,13.376 88.268,12.992 88.268,12.404 C88.268,11.588 88.976,11.228 90.308,11.228 C90.512,11.228 90.716,11.24 90.872,11.252 L90.872,11.756 C90.872,12.908 90.128,13.376 89.384,13.376 Z M95.936,14.144 C96.356,14.144 96.824,14 97.172,13.784 L96.992,13.004 C96.656,13.22 96.404,13.316 96.008,13.316 C95.492,13.316 95.132,13.052 95.132,12.392 L95.132,8.756 L96.932,8.756 L96.932,8 L95.132,8 L95.132,6.572 L94.148,6.728 L94.148,8 L93.284,8 L93.284,8.756 L94.148,8.756 L94.148,12.488 C94.148,13.604 94.82,14.144 95.936,14.144 Z M99.116,6.896 C99.524,6.896 99.824,6.584 99.824,6.176 C99.824,5.768 99.524,5.456 99.116,5.456 C98.708,5.456 98.408,5.768 98.408,6.176 C98.408,6.584 98.708,6.896 99.116,6.896 Z M99.608,14 L99.608,8 L98.624,8 L98.624,14 L99.608,14 Z M103.976,14.144 C105.572,14.144 106.664,13.016 106.664,11 C106.664,8.984 105.572,7.856 103.976,7.856 C102.38,7.856 101.288,8.984 101.288,11 C101.288,13.016 102.38,14.144 103.976,14.144 Z M103.976,13.376 C102.872,13.376 102.284,12.548 102.284,11 C102.284,9.452 102.872,8.624 103.976,8.624 C105.08,8.624 105.668,9.452 105.668,11 C105.668,12.548 105.08,13.376 103.976,13.376 Z M109.328,14 L109.328,10.52 C109.328,9.212 110.048,8.72 110.9,8.72 C111.704,8.72 112.076,9.224 112.076,9.992 L112.076,14 L113.06,14 L113.06,9.788 C113.06,8.576 112.304,7.856 111.212,7.856 C110.264,7.856 109.532,8.336 109.196,9.164 L109.076,8 L108.344,8 L108.344,14 L109.328,14 Z M116.888,14.144 C118.16,14.144 119.12,13.508 119.12,12.368 C119.12,9.932 115.7,11.156 115.7,9.584 C115.7,8.972 116.144,8.612 116.876,8.612 C117.668,8.612 118.064,9.02 118.124,9.656 L119.048,9.524 C118.928,8.432 118.184,7.856 116.876,7.856 C115.676,7.856 114.776,8.528 114.776,9.656 C114.776,12.02 118.196,10.856 118.196,12.44 C118.196,13.076 117.668,13.388 116.888,13.388 C116.12,13.388 115.508,12.92 115.412,12.236 L114.512,12.488 C114.692,13.544 115.64,14.144 116.888,14.144 Z" id="AppSpecifications" fill="#696F73" fill-rule="nonzero"></path>
                        <g id="Group-10-Copy" transform="translate(0.000000, 2.000000)">
                            <rect id="Rectangle-Copy-77" stroke="#8C65F2" stroke-width="1.5" x="0.75" y="0.75" width="8.5" height="13.5" rx="1.8"></rect>
                            <circle id="Oval-Copy-41" fill="#8C65F2" cx="5" cy="12" r="1"></circle>
                        </g>
                    </g>
                    <g id="Group-68-Copy-2" transform="translate(24.556349, 81.000000)" fill-rule="nonzero">
                        <path d="M25.124,9 L25.124,5.964 L26.792,5.964 C28.664,5.964 29.6,4.968 29.6,3.468 C29.6,1.968 28.652,0.984 26.792,0.984 L24.116,0.984 L24.116,9 L25.124,9 Z M26.696,5.124 L25.124,5.124 L25.124,1.824 L26.696,1.824 C28.1,1.824 28.532,2.496 28.532,3.468 C28.532,4.44 28.1,5.124 26.696,5.124 Z M32.096,9 L32.096,5.964 C32.096,4.656 32.792,3.888 33.74,3.888 C33.908,3.888 34.112,3.9 34.22,3.924 L34.28,2.892 C33.164,2.688 32.264,3.468 32.024,4.536 L31.892,3 L31.112,3 L31.112,9 L32.096,9 Z M37.868,9.144 C39.464,9.144 40.556,8.016 40.556,6 C40.556,3.984 39.464,2.856 37.868,2.856 C36.272,2.856 35.18,3.984 35.18,6 C35.18,8.016 36.272,9.144 37.868,9.144 Z M37.868,8.376 C36.764,8.376 36.176,7.548 36.176,6 C36.176,4.452 36.764,3.624 37.868,3.624 C38.972,3.624 39.56,4.452 39.56,6 C39.56,7.548 38.972,8.376 37.868,8.376 Z M42.728,1.896 C43.136,1.896 43.436,1.584 43.436,1.176 C43.436,0.768 43.136,0.456 42.728,0.456 C42.32,0.456 42.02,0.768 42.02,1.176 C42.02,1.584 42.32,1.896 42.728,1.896 Z M43.22,9.264 L43.22,3 L42.236,3 L42.236,9.192 C42.236,10.512 41.72,10.872 40.712,10.572 L40.58,11.412 C42.164,11.808 43.22,11.004 43.22,9.264 Z M47.576,9.144 C48.644,9.144 49.568,8.676 49.844,7.512 L48.992,7.272 C48.812,8.028 48.296,8.364 47.576,8.364 C46.496,8.364 45.896,7.524 45.848,6.18 L49.784,6.18 C49.844,6.024 49.904,5.724 49.904,5.376 C49.904,3.948 49.076,2.856 47.576,2.856 C45.956,2.856 44.9,4.068 44.9,6.024 C44.9,8.052 45.932,9.144 47.576,9.144 Z M48.92,5.46 L45.872,5.46 C46.004,4.296 46.592,3.612 47.552,3.612 C48.452,3.612 48.932,4.308 48.932,5.148 C48.932,5.232 48.932,5.352 48.92,5.46 Z M53.816,9.144 C55.04,9.144 55.844,8.448 56.012,7.284 L55.112,7.116 C55.052,7.812 54.596,8.364 53.816,8.364 C52.7,8.364 52.136,7.404 52.136,6 C52.136,4.596 52.7,3.636 53.816,3.636 C54.596,3.636 55.052,4.2 55.112,4.86 L56.012,4.692 C55.892,3.6 55.04,2.856 53.816,2.856 C52.196,2.856 51.14,4.032 51.14,6 C51.14,7.98 52.196,9.144 53.816,9.144 Z M59.492,9.144 C59.912,9.144 60.38,9 60.728,8.784 L60.548,8.004 C60.212,8.22 59.96,8.316 59.564,8.316 C59.048,8.316 58.688,8.052 58.688,7.392 L58.688,3.756 L60.488,3.756 L60.488,3 L58.688,3 L58.688,1.572 L57.704,1.728 L57.704,3 L56.84,3 L56.84,3.756 L57.704,3.756 L57.704,7.488 C57.704,8.604 58.376,9.144 59.492,9.144 Z M68.168,9.144 C69.224,9.144 70.124,8.652 70.412,7.824 L70.592,9 L71.396,9 L71.396,4.956 L68.312,4.956 L68.312,5.82 L70.4,5.82 L70.4,6.3 C70.4,7.728 69.38,8.292 68.3,8.292 C66.608,8.292 65.804,6.948 65.804,4.992 C65.804,2.952 66.716,1.704 68.312,1.704 C69.332,1.704 70.1,2.22 70.388,3.192 L71.288,2.7 C70.784,1.476 69.812,0.84 68.312,0.84 C66.248,0.84 64.724,2.328 64.724,5.004 C64.724,7.656 66.128,9.144 68.168,9.144 Z M75.56,9.144 C77.156,9.144 78.248,8.016 78.248,6 C78.248,3.984 77.156,2.856 75.56,2.856 C73.964,2.856 72.872,3.984 72.872,6 C72.872,8.016 73.964,9.144 75.56,9.144 Z M75.56,8.376 C74.456,8.376 73.868,7.548 73.868,6 C73.868,4.452 74.456,3.624 75.56,3.624 C76.664,3.624 77.252,4.452 77.252,6 C77.252,7.548 76.664,8.376 75.56,8.376 Z M81.296,9.132 C82.052,9.132 82.796,8.772 83.036,8.112 C83.072,8.292 83.12,8.448 83.192,8.58 C83.372,8.928 83.696,9.12 84.152,9.12 C84.368,9.12 84.656,9.06 84.812,8.952 L84.752,8.22 C84.668,8.292 84.512,8.352 84.38,8.352 C84.104,8.352 83.936,8.208 83.936,7.824 L83.936,4.704 C83.936,3.444 83.144,2.856 81.884,2.856 C80.732,2.856 79.82,3.456 79.688,4.572 L80.648,4.74 C80.672,4.08 81.044,3.66 81.824,3.66 C82.616,3.66 83.012,4.092 83.012,4.812 L83.012,5.52 C82.796,5.508 82.58,5.496 82.448,5.496 C80.396,5.496 79.436,6.252 79.436,7.44 C79.436,8.52 80.24,9.132 81.296,9.132 Z M81.524,8.376 C80.816,8.376 80.408,7.992 80.408,7.404 C80.408,6.588 81.116,6.228 82.448,6.228 C82.652,6.228 82.856,6.24 83.012,6.252 L83.012,6.756 C83.012,7.908 82.268,8.376 81.524,8.376 Z M87.332,9.12 C87.656,9.12 88.016,9.036 88.244,8.904 L88.136,8.148 C87.968,8.268 87.776,8.316 87.596,8.316 C87.224,8.316 87.056,8.136 87.056,7.764 L87.056,0.336 L86.072,0.336 L86.072,7.872 C86.072,8.76 86.576,9.12 87.332,9.12 Z M91.448,9.144 C92.72,9.144 93.68,8.508 93.68,7.368 C93.68,4.932 90.26,6.156 90.26,4.584 C90.26,3.972 90.704,3.612 91.436,3.612 C92.228,3.612 92.624,4.02 92.684,4.656 L93.608,4.524 C93.488,3.432 92.744,2.856 91.436,2.856 C90.236,2.856 89.336,3.528 89.336,4.656 C89.336,7.02 92.756,5.856 92.756,7.44 C92.756,8.076 92.228,8.388 91.448,8.388 C90.68,8.388 90.068,7.92 89.972,7.236 L89.072,7.488 C89.252,8.544 90.2,9.144 91.448,9.144 Z" id="ProjectGoals" fill="#696F73"></path>
                        <g id="Group-3" transform="translate(0.000000, 0.333333)" fill="#8C65F2">
                            <path d="M6.13807119,3.19526215 C5.87772166,2.93491262 5.45561167,2.93491262 5.19526215,3.19526215 L0.195262146,8.19526215 C-0.065087382,8.45561167 -0.065087382,8.87772166 0.195262146,9.13807119 C0.455611674,9.39842072 0.87772166,9.39842072 1.13807119,9.13807119 L5.66666667,4.60947571 L8.52859548,7.47140452 C8.78894501,7.73175405 9.21105499,7.73175405 9.47140452,7.47140452 L15.8047379,1.13807119 C16.0650874,0.87772166 16.0650874,0.455611674 15.8047379,0.195262146 C15.5443883,-0.065087382 15.1222783,-0.065087382 14.8619288,0.195262146 L9,6.05719096 L6.13807119,3.19526215 Z" id="Shape"></path>
                            <path d="M14.6666667,4.66666667 C14.6666667,5.0348565 14.9651435,5.33333333 15.3333333,5.33333333 C15.7015232,5.33333333 16,5.0348565 16,4.66666667 L16,0.666666667 C16,0.298476833 15.7015232,-9.32587341e-15 15.3333333,-9.32587341e-15 L11.3333333,-9.32587341e-15 C10.9651435,-9.32587341e-15 10.6666667,0.298476833 10.6666667,0.666666667 C10.6666667,1.0348565 10.9651435,1.33333333 11.3333333,1.33333333 L14.6666667,1.33333333 L14.6666667,4.66666667 Z" id="Shape"></path>
                        </g>
                    </g>
                    <g id="Group-68-Copy-5" transform="translate(24.556349, 172.000000)">
                        <path d="M25.124,14 L25.124,5.984 L24.116,5.984 L24.116,14 L25.124,14 Z M28.28,14 L28.28,10.52 C28.28,9.212 29,8.72 29.852,8.72 C30.656,8.72 31.028,9.224 31.028,9.992 L31.028,14 L32.012,14 L32.012,9.788 C32.012,8.576 31.256,7.856 30.164,7.856 C29.216,7.856 28.484,8.336 28.148,9.164 L28.028,8 L27.296,8 L27.296,14 L28.28,14 Z M35.84,14.144 C37.112,14.144 38.072,13.508 38.072,12.368 C38.072,9.932 34.652,11.156 34.652,9.584 C34.652,8.972 35.096,8.612 35.828,8.612 C36.62,8.612 37.016,9.02 37.076,9.656 L38,9.524 C37.88,8.432 37.136,7.856 35.828,7.856 C34.628,7.856 33.728,8.528 33.728,9.656 C33.728,12.02 37.148,10.856 37.148,12.44 C37.148,13.076 36.62,13.388 35.84,13.388 C35.072,13.388 34.46,12.92 34.364,12.236 L33.464,12.488 C33.644,13.544 34.592,14.144 35.84,14.144 Z M40.436,8 L39.704,8 L39.704,16.376 L40.688,16.376 L40.688,13.196 C40.904,13.7 41.504,14.144 42.392,14.144 C44,14.144 44.972,12.788 44.972,11 C44.972,9.212 44.156,7.856 42.452,7.856 C41.56325,7.856 40.8537969,8.41498438 40.6004961,9.02868066 L40.556,9.152 L40.436,8 Z M42.248,13.364 C41.492,13.364 40.688,12.86 40.688,11.648 L40.688,10.58 C40.688,9.224 41.492,8.648 42.248,8.648 C43.328,8.648 43.976,9.404 43.976,11 C43.976,12.596 43.244,13.364 42.248,13.364 Z M47.144,6.896 C47.552,6.896 47.852,6.584 47.852,6.176 C47.852,5.768 47.552,5.456 47.144,5.456 C46.736,5.456 46.436,5.768 46.436,6.176 C46.436,6.584 46.736,6.896 47.144,6.896 Z M47.636,14 L47.636,8 L46.652,8 L46.652,14 L47.636,14 Z M50.732,14 L50.732,10.964 C50.732,9.656 51.428,8.888 52.376,8.888 C52.544,8.888 52.748,8.9 52.856,8.924 L52.916,7.892 C51.8,7.688 50.9,8.468 50.66,9.536 L50.528,8 L49.748,8 L49.748,14 L50.732,14 Z M54.74,6.896 C55.148,6.896 55.448,6.584 55.448,6.176 C55.448,5.768 55.148,5.456 54.74,5.456 C54.332,5.456 54.032,5.768 54.032,6.176 C54.032,6.584 54.332,6.896 54.74,6.896 Z M55.232,14 L55.232,8 L54.248,8 L54.248,14 L55.232,14 Z M58.328,14 L58.328,10.52 C58.328,9.212 59.048,8.72 59.9,8.72 C60.704,8.72 61.076,9.224 61.076,9.992 L61.076,14 L62.06,14 L62.06,9.788 C62.06,8.576 61.304,7.856 60.212,7.856 C59.264,7.856 58.532,8.336 58.196,9.164 L58.076,8 L57.344,8 L57.344,14 L58.328,14 Z M65.96,16.52 C67.46,16.52 69.056,16.004 69.056,14.492 C69.056,13.484 68.348,12.872 67.064,12.872 L65.396,12.872 C65.024,12.872 64.784,12.728 64.784,12.404 C64.784,12.128 64.94,11.936 65.24,11.804 C65.492,11.864 65.768,11.9 66.056,11.9 C67.448,11.9 68.372,11.132 68.372,9.872 C68.372,9.488 68.288,9.152 68.12,8.864 C68.636,8.756 69.068,8.3 69.164,7.724 L68.252,7.4 C68.18,7.82 68.096,8.228 67.748,8.396 C67.34,8.048 66.752,7.856 66.056,7.856 C64.676,7.856 63.752,8.612 63.752,9.872 C63.752,10.688 64.136,11.3 64.784,11.624 C64.292,11.792 63.956,12.116 63.956,12.608 C63.956,13.016 64.184,13.352 64.616,13.496 C63.812,13.616 63.248,14.108 63.248,14.792 C63.248,16.016 64.568,16.52 65.96,16.52 Z M66.056,11.168 C65.24,11.168 64.7,10.724 64.7,9.872 C64.7,9.032 65.24,8.576 66.056,8.576 C66.884,8.576 67.424,9.032 67.424,9.872 C67.424,10.724 66.884,11.168 66.056,11.168 Z M65.936,15.788 C65.048,15.788 64.196,15.464 64.196,14.708 C64.196,14.12 64.664,13.772 65.312,13.772 L67.016,13.772 C67.796,13.772 68.144,14.084 68.144,14.588 C68.144,15.416 67.136,15.788 65.936,15.788 Z M76.28,14 C78.116,14 78.98,13.124 78.98,11.78 C78.98,10.652 78.272,10.064 77.24,9.944 L77.24,9.92 C78.092,9.776 78.74,9.104 78.74,8.084 C78.74,6.692 77.78,5.984 76.184,5.984 L73.412,5.984 L73.412,14 L76.28,14 Z M76.112,9.584 L74.408,9.584 L74.408,6.836 L76.112,6.836 C77.108,6.836 77.696,7.28 77.696,8.216 C77.696,9.14 77.108,9.584 76.112,9.584 Z M76.244,13.172 L74.408,13.172 L74.408,10.412 L76.244,10.412 C77.372,10.412 77.972,10.892 77.972,11.792 C77.972,12.68 77.372,13.172 76.244,13.172 Z M81.608,14 L81.608,10.964 C81.608,9.656 82.304,8.888 83.252,8.888 C83.42,8.888 83.624,8.9 83.732,8.924 L83.792,7.892 C82.676,7.688 81.776,8.468 81.536,9.536 L81.404,8 L80.624,8 L80.624,14 L81.608,14 Z M86.492,14.132 C87.248,14.132 87.992,13.772 88.232,13.112 C88.268,13.292 88.316,13.448 88.388,13.58 C88.568,13.928 88.892,14.12 89.348,14.12 C89.564,14.12 89.852,14.06 90.008,13.952 L89.948,13.22 C89.864,13.292 89.708,13.352 89.576,13.352 C89.3,13.352 89.132,13.208 89.132,12.824 L89.132,9.704 C89.132,8.444 88.34,7.856 87.08,7.856 C85.928,7.856 85.016,8.456 84.884,9.572 L85.844,9.74 C85.868,9.08 86.24,8.66 87.02,8.66 C87.812,8.66 88.208,9.092 88.208,9.812 L88.208,10.52 C87.992,10.508 87.776,10.496 87.644,10.496 C85.592,10.496 84.632,11.252 84.632,12.44 C84.632,13.52 85.436,14.132 86.492,14.132 Z M86.72,13.376 C86.012,13.376 85.604,12.992 85.604,12.404 C85.604,11.588 86.312,11.228 87.644,11.228 C87.848,11.228 88.052,11.24 88.208,11.252 L88.208,11.756 C88.208,12.908 87.464,13.376 86.72,13.376 Z M92.348,14 L92.348,10.52 C92.348,9.212 93.068,8.72 93.92,8.72 C94.724,8.72 95.096,9.224 95.096,9.992 L95.096,14 L96.08,14 L96.08,9.788 C96.08,8.576 95.324,7.856 94.232,7.856 C93.284,7.856 92.552,8.336 92.216,9.164 L92.096,8 L91.364,8 L91.364,14 L92.348,14 Z M100.148,14.144 C101,14.144 101.78,13.772 102.08,12.86 L102.188,14 L102.968,14 L102.968,5.336 L101.984,5.336 L101.984,8.816 C101.78,8.336 101.204,7.856 100.244,7.856 C98.672,7.856 97.7,9.056 97.7,11.096 C97.7,13.148 98.84,14.144 100.148,14.144 Z M100.388,13.352 C99.344,13.352 98.696,12.572 98.696,11.084 C98.696,9.368 99.44,8.636 100.4,8.636 C101.096,8.636 101.984,9.116 101.984,10.328 L101.984,11.444 C101.984,12.824 101.156,13.352 100.388,13.352 Z M106.856,14.144 C108.128,14.144 109.088,13.508 109.088,12.368 C109.088,9.932 105.668,11.156 105.668,9.584 C105.668,8.972 106.112,8.612 106.844,8.612 C107.636,8.612 108.032,9.02 108.092,9.656 L109.016,9.524 C108.896,8.432 108.152,7.856 106.844,7.856 C105.644,7.856 104.744,8.528 104.744,9.656 C104.744,12.02 108.164,10.856 108.164,12.44 C108.164,13.076 107.636,13.388 106.856,13.388 C106.088,13.388 105.476,12.92 105.38,12.236 L104.48,12.488 C104.66,13.544 105.608,14.144 106.856,14.144 Z" id="InspiringBrands" fill="#7A7F82" fill-rule="nonzero"></path>
                        <g id="Group" transform="translate(0.000000, 2.000000)">
                            <g id="Color/Color/-black" transform="translate(1.333333, 1.333333)">
                                <mask id="mask-16" fill="white">
                                    <use xlink:href="#path-15"></use>
                                </mask>
                                <use id="Mask" fill="#272C2F" fill-rule="nonzero" xlink:href="#path-15"></use>
                                <g id="Group" mask="url(#mask-16)">
                                    <g transform="translate(-1.333333, -1.333333)" id="Color">
                                        <rect id="Purple" fill="#8C65F2" x="0" y="0" width="16" height="16"></rect>
                                    </g>
                                </g>
                            </g>
                        </g>
                    </g>
                    <rect id="Rectangle" fill="url(#linearGradient-17)" x="18.5563492" y="155" width="160" height="34"></rect>
                </g>
                <g id="Group-8-Copy" transform="translate(302.395184, 19.738330) rotate(-315.000000) translate(-302.395184, -19.738330) translate(288.395184, 6.238330)" fill="#D1D3D4">
                    <circle id="Oval-6-Copy" cx="3.29898987" cy="2.6507576" r="2.5"></circle>
                    <circle id="Oval-6-Copy-4" cx="13.1984848" cy="2.6507576" r="2.5"></circle>
                    <circle id="Oval-6-Copy-5" cx="24.5121933" cy="2.6507576" r="2.5"></circle>
                    <circle id="Oval-6-Copy-8" cx="3.29898987" cy="12.5502525" r="2.5"></circle>
                    <circle id="Oval-6-Copy-7" cx="13.9055916" cy="13.2573593" r="2.5"></circle>
                    <circle id="Oval-6-Copy-6" cx="24.5121933" cy="12.5502525" r="2.5"></circle>
                    <circle id="Oval-6-Copy-11" cx="3.29898987" cy="23.863961" r="2.5"></circle>
                    <circle id="Oval-6-Copy-10" cx="13.1984848" cy="23.863961" r="2.5"></circle>
                    <circle id="Oval-6-Copy-9" cx="24.5121933" cy="23.863961" r="2.5"></circle>
                </g>
                <g id="Group-37-Copy" transform="translate(157.000000, 73.000000)">
                    <circle id="Oval" fill="#00D6B6" cx="9" cy="9" r="9"></circle>
                    <polyline id="Path-7" stroke="#FFFFFF" stroke-width="2" points="3.88922013 8.73250033 7.40165619 12.2746396 13.8892201 6.27463959"></polyline>
                </g>
                <g id="Group-37-Copy-2" transform="translate(157.000000, 129.000000)">
                    <circle id="Oval" fill="#00D6B6" cx="9" cy="9" r="9"></circle>
                    <polyline id="Path-7" stroke="#FFFFFF" stroke-width="2" points="3.88922013 8.73250033 7.40165619 12.2746396 13.8892201 6.27463959"></polyline>
                </g>
                <g id="Group-37-Copy-3" transform="translate(157.000000, 185.000000)">
                    <circle id="Oval" fill="#00D6B6" cx="9" cy="9" r="9"></circle>
                    <polyline id="Path-7" stroke="#FFFFFF" stroke-width="2" points="3.88922013 8.73250033 7.40165619 12.2746396 13.8892201 6.27463959"></polyline>
                </g>
                <polygon id="Triangle-Copy-7" fill="#4FCEFF" transform="translate(243.999921, 50.516901) scale(-1, -1) rotate(-45.000000) translate(-243.999921, -50.516901) " points="244.003444 45.5169007 250.499921 55.5122905 237.499921 55.5169007"></polygon>
                <rect id="Rectangle-3-Copy-3" fill="#8C65F2" x="311" y="67" width="9" height="9"></rect>
                <polygon id="Rectangle-19-Copy-5" fill="#F29E18" transform="translate(77.285847, 270.295879) rotate(45.000000) translate(-77.285847, -270.295879) " points="73.2858471 266.295879 81.2830199 266.298706 81.2858471 274.295879 73.2886744 274.293051"></polygon>
            </g>
        </g>
    </g>
</svg>