<?xml version="1.0" encoding="UTF-8"?>
<svg width="329px" height="270px" viewBox="0 0 329 270" version="1.1" xmlns="http://www.w3.org/2000/svg" xmlns:xlink="http://www.w3.org/1999/xlink">
    <title>Group 60</title>
    <defs>
        <path d="M2,12 C3.1045695,12 4,12.8954305 4,14 C4,15.1045695 3.1045695,16 2,16 C0.8954305,16 0,15.1045695 0,14 C0,12.8954305 0.8954305,12 2,12 Z M19.3333333,13 C19.7015232,13 20,13.2984768 20,13.6666667 L20,14.3333333 C20,14.7015232 19.7015232,15 19.3333333,15 L6.66666667,15 C6.29847683,15 6,14.7015232 6,14.3333333 L6,13.6666667 C6,13.2984768 6.29847683,13 6.66666667,13 L19.3333333,13 Z M2,6 C3.1045695,6 4,6.8954305 4,8 C4,9.1045695 3.1045695,10 2,10 C0.8954305,10 0,9.1045695 0,8 C0,6.8954305 0.8954305,6 2,6 Z M19.3333333,7 C19.7015232,7 20,7.29847683 20,7.66666667 L20,8.33333333 C20,8.70152317 19.7015232,9 19.3333333,9 L6.66666667,9 C6.29847683,9 6,8.70152317 6,8.33333333 L6,7.66666667 C6,7.29847683 6.29847683,7 6.66666667,7 L19.3333333,7 Z M2,0 C3.1045695,0 4,0.8954305 4,2 C4,3.1045695 3.1045695,4 2,4 C0.8954305,4 0,3.1045695 0,2 C0,0.8954305 0.8954305,0 2,0 Z M19.3333333,1 C19.7015232,1 20,1.29847683 20,1.66666667 L20,2.33333333 C20,2.70152317 19.7015232,3 19.3333333,3 L6.66666667,3 C6.29847683,3 6,2.70152317 6,2.33333333 L6,1.66666667 C6,1.29847683 6.29847683,1 6.66666667,1 L19.3333333,1 Z" id="path-1"></path>
        <path d="M13,0 C16.8659932,0 20,3.13400675 20,7 C20,10.8659932 16.8659932,14 13,14 C9.4738781,14 6.55669765,11.3928118 6.07103341,8.00101007 L2,8 L2,9 C2,9.55228475 1.55228475,10 1,10 C0.44771525,10 6.76353751e-17,9.55228475 0,9 L0,5 C-6.76353751e-17,4.44771525 0.44771525,4 1,4 C1.55228475,4 2,4.44771525 2,5 L2,6 L6.07089004,5.99999177 C6.55612324,2.60770164 9.47353094,0 13,0 Z M13,2 C10.2385763,2 8,4.23857625 8,7 C8,9.76142375 10.2385763,12 13,12 C15.7614237,12 18,9.76142375 18,7 C18,4.23857625 15.7614237,2 13,2 Z M13,4 C14.6568542,4 16,5.34314575 16,7 C16,8.65685425 14.6568542,10 13,10 C11.3431458,10 10,8.65685425 10,7 C10,5.34314575 11.3431458,4 13,4 Z M13,6 C12.4477153,6 12,6.44771525 12,7 C12,7.55228475 12.4477153,8 13,8 C13.5522847,8 14,7.55228475 14,7 C14,6.44771525 13.5522847,6 13,6 Z" id="path-3"></path>
        <path d="M35.1666667,17 C35.2131019,17 35.2589827,17.0023737 35.3041944,17.0070065 L35.1666667,17 C35.2326486,17 35.2981263,17.0048907 35.3626151,17.0144714 C35.3891085,17.0181969 35.4154449,17.0228962 35.4415016,17.0283563 C35.4615576,17.0328555 35.4813166,17.0374955 35.5009448,17.0425794 C35.525463,17.0485832 35.5495167,17.0555357 35.5732804,17.0631366 C35.5934756,17.0699731 35.613833,17.077035 35.6340036,17.084584 C35.6596834,17.0938072 35.6851121,17.1042408 35.7101332,17.1154229 C35.7260111,17.1228754 35.741584,17.1301934 35.7570141,17.1378123 C35.8394243,17.1782269 35.9171826,17.2273685 35.9890117,17.2837237 C35.9979713,17.2908023 36.0074618,17.2984413 36.0168553,17.3062173 C36.0423025,17.3272918 36.0662848,17.348695 36.0894656,17.3709276 C36.0960163,17.3772075 36.102778,17.3838266 36.1094757,17.3905243 L44.1094757,25.3905243 L44.1271315,25.408515 C44.15006,25.4323216 44.1721116,25.4569785 44.1932345,25.4824338 L44.1094757,25.3905243 C44.1478321,25.4288807 44.1836102,25.4693334 44.2166985,25.5116131 C44.2726315,25.5828174 44.3217731,25.6605757 44.3626099,25.7431725 C44.3698066,25.758416 44.3771246,25.7739889 44.3841379,25.7896956 C44.3957592,25.8148879 44.4061928,25.8403166 44.4158496,25.8661246 C44.422965,25.886167 44.4300269,25.9065244 44.4365944,25.9270508 C44.4444643,25.9504833 44.4514168,25.974537 44.4577002,25.9988598 C44.4625045,26.0186834 44.4671445,26.0384424 44.4713344,26.0583176 C44.4771038,26.0845551 44.4818031,26.1108915 44.4857175,26.1374833 C44.4884541,26.1570772 44.4909424,26.1768617 44.4929876,26.1967246 C44.4976616,26.2417021 44.5,26.2872446 44.5,26.3333333 L44.5,26.3333333 L44.5,42.3333333 C44.5,44.5424723 42.709139,46.3333333 40.5,46.3333333 L24.5,46.3333333 C22.290861,46.3333333 20.5,44.5424723 20.5,42.3333333 L20.5,21 C20.5,18.790861 22.290861,17 24.5,17 Z M33.833,19.666 L24.5,19.6666667 C23.7636203,19.6666667 23.1666667,20.2636203 23.1666667,21 L23.1666667,42.3333333 C23.1666667,43.069713 23.7636203,43.6666667 24.5,43.6666667 L40.5,43.6666667 C41.2363797,43.6666667 41.8333333,43.069713 41.8333333,42.3333333 L41.833,27.666 L35.1666667,27.6666667 C34.4736035,27.6666667 33.9040456,27.1378773 33.839437,26.4617422 L33.8333333,26.3333333 L33.833,19.666 Z M37.8333333,37 C38.569713,37 39.1666667,37.5969537 39.1666667,38.3333333 C39.1666667,39.069713 38.569713,39.6666667 37.8333333,39.6666667 L37.8333333,39.6666667 L27.1666667,39.6666667 C26.430287,39.6666667 25.8333333,39.069713 25.8333333,38.3333333 C25.8333333,37.5969537 26.430287,37 27.1666667,37 L27.1666667,37 Z M37.8333333,31.6666667 C38.569713,31.6666667 39.1666667,32.2636203 39.1666667,33 C39.1666667,33.7363797 38.569713,34.3333333 37.8333333,34.3333333 L37.8333333,34.3333333 L27.1666667,34.3333333 C26.430287,34.3333333 25.8333333,33.7363797 25.8333333,33 C25.8333333,32.2636203 26.430287,31.6666667 27.1666667,31.6666667 L27.1666667,31.6666667 Z M29.8333333,26.3333333 C30.569713,26.3333333 31.1666667,26.930287 31.1666667,27.6666667 C31.1666667,28.4030463 30.569713,29 29.8333333,29 L29.8333333,29 L27.1666667,29 C26.430287,29 25.8333333,28.4030463 25.8333333,27.6666667 C25.8333333,26.930287 26.430287,26.3333333 27.1666667,26.3333333 L27.1666667,26.3333333 Z M36.499,21.551 L36.5,25 L39.948,25 L36.499,21.551 Z" id="path-5"></path>
    </defs>
    <g id="v2" stroke="none" stroke-width="1" fill="none" fill-rule="evenodd">
        <g id="illustrations-outlines" transform="translate(-480.000000, -813.000000)">
            <g id="Group-60" transform="translate(481.000000, 814.000000)">
                <g id="Group-60-Copy">
                    <g id="Group-59">
                        <g id="Group-54" transform="translate(0.000000, 107.000000)">
                            <rect id="Rectangle-Copy-10" stroke="#D4D4D4" fill="#FFFFFF" x="0" y="0" width="86" height="44" rx="6"></rect>
                            <path d="M31.9436508,26 C32.4959356,26 32.9436508,26.4477153 32.9436508,27 L32.9436508,27 L32.9436508,30 C32.9436508,31.6568542 31.6005051,33 29.9436508,33 L29.9436508,33 L15.9436508,33 C14.2867966,33 12.9436508,31.6568542 12.9436508,30 L12.9436508,30 L12.9436508,27 C12.9436508,26.4477153 13.3913661,26 13.9436508,26 C14.4959356,26 14.9436508,26.4477153 14.9436508,27 L14.9436508,27 L14.9436508,30 C14.9436508,30.5522847 15.3913661,31 15.9436508,31 L15.9436508,31 L29.9436508,31 C30.4959356,31 30.9436508,30.5522847 30.9436508,30 L30.9436508,30 L30.9436508,27 C30.9436508,26.4477153 31.3913661,26 31.9436508,26 Z M22.9436508,11 C22.9501123,11 22.9565594,11.0000613 22.9629917,11.0001833 C22.9863319,11.0006349 23.0096457,11.001895 23.0329009,11.0039664 C23.0533457,11.005748 23.0730713,11.008101 23.092612,11.0110193 C23.1095998,11.0136281 23.1270261,11.0167022 23.1443766,11.0202401 C23.1663969,11.0246398 23.1880873,11.0298336 23.2094904,11.035721 C23.2251141,11.0400977 23.2405022,11.0447287 23.2557933,11.0497381 C23.2754485,11.0561225 23.29523,11.0633157 23.3147093,11.071104 C23.3324465,11.0781964 23.3497493,11.085679 23.3668724,11.0936734 C23.3875422,11.1033766 23.4079448,11.1137939 23.4279278,11.1248758 C23.4400453,11.1314988 23.4522639,11.1386069 23.4643596,11.1459955 C23.4899258,11.1617187 23.5147815,11.1784901 23.5388101,11.1963135 C23.5779764,11.225313 23.6153635,11.2574992 23.6507576,11.2928932 L23.5604009,11.212786 C23.5633136,11.2150711 23.5662133,11.2173721 23.5690998,11.2196888 L23.6507576,11.2928932 L27.6507576,15.2928932 C28.0412819,15.6834175 28.0412819,16.3165825 27.6507576,16.7071068 C27.2602333,17.0976311 26.6270683,17.0976311 26.236544,16.7071068 L26.236544,16.7071068 L23.9436508,14.414 L23.9436508,26 C23.9436508,26.5128358 23.5576106,26.9355072 23.0602719,26.9932723 L22.9436508,27 C22.3913661,27 21.9436508,26.5522847 21.9436508,26 L21.9436508,26 L21.9436508,14.414 L19.6507576,16.7071068 C19.2902736,17.0675907 18.7230426,17.0953203 18.3307514,16.7902954 L18.236544,16.7071068 C17.8460197,16.3165825 17.8460197,15.6834175 18.236544,15.2928932 L18.236544,15.2928932 L22.236544,11.2928932 L22.236544,11.2928932 L22.3182018,11.2196888 C22.3210884,11.2173721 22.3239881,11.2150711 22.3269007,11.212786 C22.3338084,11.2072845 22.3410478,11.2017534 22.3483442,11.1963346 C22.3725201,11.1784901 22.3973759,11.1617187 22.4229906,11.1460674 C22.4350377,11.1386069 22.4472564,11.1314988 22.4595887,11.1246712 C22.4793569,11.1137939 22.4997594,11.1033766 22.5205517,11.0936538 C22.5375523,11.085679 22.5548552,11.0781964 22.5723148,11.0712255 C22.5920716,11.0633157 22.6118531,11.0561225 22.6319144,11.0495467 C22.6467995,11.0447287 22.6621875,11.0400977 22.6776578,11.0358451 C22.6992143,11.0298336 22.7209047,11.0246398 22.7428567,11.0201652 C22.7602756,11.0167022 22.7777018,11.0136281 22.7951839,11.0110178 C22.8432887,11.0037612 22.8930305,11 22.9436508,11 L22.8544007,11.0039664 C22.8779857,11.0018656 22.901631,11.0005993 22.9252888,11.0001675 Z" id="Combined-Shape" fill="#8C65F2" fill-rule="nonzero"></path>
                            <path d="M47.0676508,26 L47.0676508,22.436 L50.4756508,22.436 L50.4756508,21.548 L47.0676508,21.548 L47.0676508,18.872 L50.8956508,18.872 L50.8956508,17.984 L46.0596508,17.984 L46.0596508,26 L47.0676508,26 Z M53.0436508,18.896 C53.4516508,18.896 53.7516508,18.584 53.7516508,18.176 C53.7516508,17.768 53.4516508,17.456 53.0436508,17.456 C52.6356508,17.456 52.3356508,17.768 52.3356508,18.176 C52.3356508,18.584 52.6356508,18.896 53.0436508,18.896 Z M53.5356508,26 L53.5356508,20 L52.5516508,20 L52.5516508,26 L53.5356508,26 Z M56.8116508,26.12 C57.1356508,26.12 57.4956508,26.036 57.7236508,25.904 L57.6156508,25.148 C57.4476508,25.268 57.2556508,25.316 57.0756508,25.316 C56.7036508,25.316 56.5356508,25.136 56.5356508,24.764 L56.5356508,17.336 L55.5516508,17.336 L55.5516508,24.872 C55.5516508,25.76 56.0556508,26.12 56.8116508,26.12 Z M61.3956508,26.144 C62.4636508,26.144 63.3876508,25.676 63.6636508,24.512 L62.8116508,24.272 C62.6316508,25.028 62.1156508,25.364 61.3956508,25.364 C60.3156508,25.364 59.7156508,24.524 59.6676508,23.18 L63.6036508,23.18 C63.6636508,23.024 63.7236508,22.724 63.7236508,22.376 C63.7236508,20.948 62.8956508,19.856 61.3956508,19.856 C59.7756508,19.856 58.7196508,21.068 58.7196508,23.024 C58.7196508,25.052 59.7516508,26.144 61.3956508,26.144 Z M62.7396508,22.46 L59.6916508,22.46 C59.8236508,21.296 60.4116508,20.612 61.3716508,20.612 C62.2716508,20.612 62.7516508,21.308 62.7516508,22.148 C62.7516508,22.232 62.7516508,22.352 62.7396508,22.46 Z M67.1676508,26.144 C68.4396508,26.144 69.3996508,25.508 69.3996508,24.368 C69.3996508,21.932 65.9796508,23.156 65.9796508,21.584 C65.9796508,20.972 66.4236508,20.612 67.1556508,20.612 C67.9476508,20.612 68.3436508,21.02 68.4036508,21.656 L69.3276508,21.524 C69.2076508,20.432 68.4636508,19.856 67.1556508,19.856 C65.9556508,19.856 65.0556508,20.528 65.0556508,21.656 C65.0556508,24.02 68.4756508,22.856 68.4756508,24.44 C68.4756508,25.076 67.9476508,25.388 67.1676508,25.388 C66.3996508,25.388 65.7876508,24.92 65.6916508,24.236 L64.7916508,24.488 C64.9716508,25.544 65.9196508,26.144 67.1676508,26.144 Z" id="Files" fill="#272C2F" fill-rule="nonzero"></path>
                        </g>
                        <g id="Group-53" transform="translate(96.000000, 107.000000)">
                            <rect id="Rectangle-Copy-11" stroke="#D4D4D4" fill="#FFFFFF" x="0" y="0" width="81" height="44" rx="6"></rect>
                            <path d="M20,31 C19.4477153,31 19,30.5522847 19,30 C19,29.4477153 19.4477153,29 20,29 L20,29 L22,29 L22,15 L16,15 L16,17 C16,17.5522847 15.5522847,18 15,18 C14.4477153,18 14,17.5522847 14,17 L14,17 L14,14 C14,13.4477153 14.4477153,13 15,13 L15,13 L31,13 C31.5522847,13 32,13.4477153 32,14 L32,14 L32,17 C32,17.5522847 31.5522847,18 31,18 C30.4477153,18 30,17.5522847 30,17 L30,17 L30,15 L24,15 L24,29 L26,29 C26.5128358,29 26.9355072,29.3860402 26.9932723,29.8833789 L27,30 C27,30.5522847 26.5522847,31 26,31 L26,31 Z" id="Combined-Shape" fill="#8C65F2" fill-rule="nonzero"></path>
                            <path d="M49.0836508,26 L49.0836508,18.872 L51.8316508,18.872 L51.8316508,17.984 L45.3276508,17.984 L45.3276508,18.872 L48.0756508,18.872 L48.0756508,26 L49.0836508,26 Z M55.5156508,26.144 C56.5836508,26.144 57.5076508,25.676 57.7836508,24.512 L56.9316508,24.272 C56.7516508,25.028 56.2356508,25.364 55.5156508,25.364 C54.4356508,25.364 53.8356508,24.524 53.7876508,23.18 L57.7236508,23.18 C57.7836508,23.024 57.8436508,22.724 57.8436508,22.376 C57.8436508,20.948 57.0156508,19.856 55.5156508,19.856 C53.8956508,19.856 52.8396508,21.068 52.8396508,23.024 C52.8396508,25.052 53.8716508,26.144 55.5156508,26.144 Z M56.8596508,22.46 L53.8116508,22.46 C53.9436508,21.296 54.5316508,20.612 55.4916508,20.612 C56.3916508,20.612 56.8716508,21.308 56.8716508,22.148 C56.8716508,22.232 56.8716508,22.352 56.8596508,22.46 Z M59.8236508,26 L61.4196508,23.648 L61.4436508,23.648 L63.0636508,26 L64.1436508,26 L61.9956508,22.928 L64.0356508,20 L63.0276508,20 L61.5276508,22.256 L61.5036508,22.256 L59.9916508,20 L58.9116508,20 L60.9516508,22.94 L58.8036508,26 L59.8236508,26 Z M67.4556508,26.144 C67.8756508,26.144 68.3436508,26 68.6916508,25.784 L68.5116508,25.004 C68.1756508,25.22 67.9236508,25.316 67.5276508,25.316 C67.0116508,25.316 66.6516508,25.052 66.6516508,24.392 L66.6516508,20.756 L68.4516508,20.756 L68.4516508,20 L66.6516508,20 L66.6516508,18.572 L65.6676508,18.728 L65.6676508,20 L64.8036508,20 L64.8036508,20.756 L65.6676508,20.756 L65.6676508,24.488 C65.6676508,25.604 66.3396508,26.144 67.4556508,26.144 Z" id="Text" fill="#272C2F" fill-rule="nonzero"></path>
                        </g>
                        <g id="Group-52" transform="translate(0.000000, 161.000000)">
                            <rect id="Rectangle-Copy-12" stroke="#D4D4D4" fill="#FFFFFF" x="0" y="0" width="86" height="44" rx="6"></rect>
                            <path d="M51.12,26 L51.12,25.112 L47.124,25.112 L47.124,17.984 L46.116,17.984 L46.116,26 L51.12,26 Z M53.22,18.896 C53.628,18.896 53.928,18.584 53.928,18.176 C53.928,17.768 53.628,17.456 53.22,17.456 C52.812,17.456 52.512,17.768 52.512,18.176 C52.512,18.584 52.812,18.896 53.22,18.896 Z M53.712,26 L53.712,20 L52.728,20 L52.728,26 L53.712,26 Z M57.6,26.144 C58.872,26.144 59.832,25.508 59.832,24.368 C59.832,21.932 56.412,23.156 56.412,21.584 C56.412,20.972 56.856,20.612 57.588,20.612 C58.38,20.612 58.776,21.02 58.836,21.656 L59.76,21.524 C59.64,20.432 58.896,19.856 57.588,19.856 C56.388,19.856 55.488,20.528 55.488,21.656 C55.488,24.02 58.908,22.856 58.908,24.44 C58.908,25.076 58.38,25.388 57.6,25.388 C56.832,25.388 56.22,24.92 56.124,24.236 L55.224,24.488 C55.404,25.544 56.352,26.144 57.6,26.144 Z M63.372,26.144 C63.792,26.144 64.26,26 64.608,25.784 L64.428,25.004 C64.092,25.22 63.84,25.316 63.444,25.316 C62.928,25.316 62.568,25.052 62.568,24.392 L62.568,20.756 L64.368,20.756 L64.368,20 L62.568,20 L62.568,18.572 L61.584,18.728 L61.584,20 L60.72,20 L60.72,20.756 L61.584,20.756 L61.584,24.488 C61.584,25.604 62.256,26.144 63.372,26.144 Z M67.836,26.144 C69.108,26.144 70.068,25.508 70.068,24.368 C70.068,21.932 66.648,23.156 66.648,21.584 C66.648,20.972 67.092,20.612 67.824,20.612 C68.616,20.612 69.012,21.02 69.072,21.656 L69.996,21.524 C69.876,20.432 69.132,19.856 67.824,19.856 C66.624,19.856 65.724,20.528 65.724,21.656 C65.724,24.02 69.144,22.856 69.144,24.44 C69.144,25.076 68.616,25.388 67.836,25.388 C67.068,25.388 66.456,24.92 66.36,24.236 L65.46,24.488 C65.64,25.544 66.588,26.144 67.836,26.144 Z" id="Lists" fill="#272C2F" fill-rule="nonzero"></path>
                            <g id="Group" transform="translate(11.000000, 10.000000)">
                                <g id="Color/Color/-black" transform="translate(2.000000, 4.000000)">
                                    <mask id="mask-2" fill="white">
                                        <use xlink:href="#path-1"></use>
                                    </mask>
                                    <use id="Mask" fill="#272C2F" xlink:href="#path-1"></use>
                                    <g id="Group" mask="url(#mask-2)">
                                        <g transform="translate(-2.000000, -4.000000)" id="Color/Color/-black">
                                            <rect id="Purple" fill="#8C65F2" x="0" y="0" width="24" height="24"></rect>
                                        </g>
                                    </g>
                                </g>
                            </g>
                        </g>
                        <g id="Group-51" transform="translate(96.000000, 161.000000)">
                            <rect id="Rectangle-Copy-13" stroke="#D4D4D4" fill="#FFFFFF" x="0" y="0" width="96" height="44" rx="6"></rect>
                            <path d="M48.408,26.144 C49.92,26.144 51.156,25.328 51.156,23.876 C51.156,20.828 46.716,22.16 46.716,20.06 C46.716,19.232 47.388,18.668 48.408,18.668 C49.392,18.668 50.064,19.268 50.172,20.192 L51.108,19.988 C50.928,18.488 49.86,17.84 48.396,17.84 C46.908,17.84 45.744,18.74 45.744,20.108 C45.744,23.072 50.184,21.812 50.184,23.912 C50.184,24.86 49.38,25.316 48.408,25.316 C47.328,25.316 46.464,24.632 46.308,23.504 L45.384,23.792 C45.6,25.256 46.764,26.144 48.408,26.144 Z M54,26.12 C54.324,26.12 54.684,26.036 54.912,25.904 L54.804,25.148 C54.636,25.268 54.444,25.316 54.264,25.316 C53.892,25.316 53.724,25.136 53.724,24.764 L53.724,17.336 L52.74,17.336 L52.74,24.872 C52.74,25.76 53.244,26.12 54,26.12 Z M56.832,18.896 C57.24,18.896 57.54,18.584 57.54,18.176 C57.54,17.768 57.24,17.456 56.832,17.456 C56.424,17.456 56.124,17.768 56.124,18.176 C56.124,18.584 56.424,18.896 56.832,18.896 Z M57.324,26 L57.324,20 L56.34,20 L56.34,26 L57.324,26 Z M61.452,26.144 C62.304,26.144 63.084,25.772 63.384,24.86 L63.492,26 L64.272,26 L64.272,17.336 L63.288,17.336 L63.288,20.816 C63.084,20.336 62.508,19.856 61.548,19.856 C59.976,19.856 59.004,21.056 59.004,23.096 C59.004,25.148 60.144,26.144 61.452,26.144 Z M61.692,25.352 C60.648,25.352 60,24.572 60,23.084 C60,21.368 60.744,20.636 61.704,20.636 C62.4,20.636 63.288,21.116 63.288,22.328 L63.288,23.444 C63.288,24.824 62.46,25.352 61.692,25.352 Z M68.628,26.144 C69.696,26.144 70.62,25.676 70.896,24.512 L70.044,24.272 C69.864,25.028 69.348,25.364 68.628,25.364 C67.548,25.364 66.948,24.524 66.9,23.18 L70.836,23.18 C70.896,23.024 70.956,22.724 70.956,22.376 C70.956,20.948 70.128,19.856 68.628,19.856 C67.008,19.856 65.952,21.068 65.952,23.024 C65.952,25.052 66.984,26.144 68.628,26.144 Z M69.972,22.46 L66.924,22.46 C67.056,21.296 67.644,20.612 68.604,20.612 C69.504,20.612 69.984,21.308 69.984,22.148 C69.984,22.232 69.984,22.352 69.972,22.46 Z M73.608,26 L73.608,22.964 C73.608,21.656 74.304,20.888 75.252,20.888 C75.42,20.888 75.624,20.9 75.732,20.924 L75.792,19.892 C74.676,19.688 73.776,20.468 73.536,21.536 L73.404,20 L72.624,20 L72.624,26 L73.608,26 Z M78.9,26.144 C80.172,26.144 81.132,25.508 81.132,24.368 C81.132,21.932 77.712,23.156 77.712,21.584 C77.712,20.972 78.156,20.612 78.888,20.612 C79.68,20.612 80.076,21.02 80.136,21.656 L81.06,21.524 C80.94,20.432 80.196,19.856 78.888,19.856 C77.688,19.856 76.788,20.528 76.788,21.656 C76.788,24.02 80.208,22.856 80.208,24.44 C80.208,25.076 79.68,25.388 78.9,25.388 C78.132,25.388 77.52,24.92 77.424,24.236 L76.524,24.488 C76.704,25.544 77.652,26.144 78.9,26.144 Z" id="Sliders" fill="#272C2F" fill-rule="nonzero"></path>
                            <g id="Group" transform="translate(11.000000, 10.000000)">
                                <g id="Color/Color/-black" transform="translate(2.000000, 5.000000)">
                                    <mask id="mask-4" fill="white">
                                        <use xlink:href="#path-3"></use>
                                    </mask>
                                    <use id="Mask" fill="#000000" fill-rule="nonzero" xlink:href="#path-3"></use>
                                    <g id="Group" mask="url(#mask-4)">
                                        <g transform="translate(-2.000000, -5.000000)" id="Color/Color/-black">
                                            <rect id="Purple" fill="#8C65F2" x="0" y="0" width="24" height="24"></rect>
                                        </g>
                                    </g>
                                </g>
                            </g>
                        </g>
                        <g id="Group-55" transform="translate(0.000000, 215.000000)">
                            <rect id="Rectangle-Copy-13" stroke="#D4D4D4" fill="#FFFFFF" x="0" y="0" width="96" height="44" rx="6"></rect>
                            <path d="M51.396,28.016 L51.588,27.14 C50.544,27.26 49.812,26.96 49.596,26.12 C51.444,25.904 52.656,24.38 52.656,21.992 C52.656,19.412 51.24,17.84 49.128,17.84 C47.016,17.84 45.6,19.412 45.6,21.992 C45.6,24.344 46.776,25.856 48.588,26.108 C48.768,27.284 49.668,28.16 51.396,28.016 Z M49.128,25.292 C47.544,25.292 46.68,23.948 46.68,21.992 C46.68,20.036 47.544,18.692 49.128,18.692 C50.712,18.692 51.576,20.036 51.576,21.992 C51.576,23.948 50.712,25.292 49.128,25.292 Z M56.1,26.144 C57.012,26.144 57.708,25.724 57.996,24.86 L58.116,26 L58.896,26 L58.896,20 L57.9,20 L57.9,23.48 C57.9,24.788 57.216,25.352 56.376,25.352 C55.656,25.352 55.236,24.884 55.236,24.116 L55.236,20 L54.252,20 L54.252,24.224 C54.252,25.532 55.116,26.144 56.1,26.144 Z M63.264,26.144 C64.86,26.144 65.952,25.016 65.952,23 C65.952,20.984 64.86,19.856 63.264,19.856 C61.668,19.856 60.576,20.984 60.576,23 C60.576,25.016 61.668,26.144 63.264,26.144 Z M63.264,25.376 C62.16,25.376 61.572,24.548 61.572,23 C61.572,21.452 62.16,20.624 63.264,20.624 C64.368,20.624 64.956,21.452 64.956,23 C64.956,24.548 64.368,25.376 63.264,25.376 Z M69.54,26.144 C69.96,26.144 70.428,26 70.776,25.784 L70.596,25.004 C70.26,25.22 70.008,25.316 69.612,25.316 C69.096,25.316 68.736,25.052 68.736,24.392 L68.736,20.756 L70.536,20.756 L70.536,20 L68.736,20 L68.736,18.572 L67.752,18.728 L67.752,20 L66.888,20 L66.888,20.756 L67.752,20.756 L67.752,24.488 C67.752,25.604 68.424,26.144 69.54,26.144 Z M74.472,26.144 C75.54,26.144 76.464,25.676 76.74,24.512 L75.888,24.272 C75.708,25.028 75.192,25.364 74.472,25.364 C73.392,25.364 72.792,24.524 72.744,23.18 L76.68,23.18 C76.74,23.024 76.8,22.724 76.8,22.376 C76.8,20.948 75.972,19.856 74.472,19.856 C72.852,19.856 71.796,21.068 71.796,23.024 C71.796,25.052 72.828,26.144 74.472,26.144 Z M75.816,22.46 L72.768,22.46 C72.9,21.296 73.488,20.612 74.448,20.612 C75.348,20.612 75.828,21.308 75.828,22.148 C75.828,22.232 75.828,22.352 75.816,22.46 Z" id="Quote" fill="#272C2F" fill-rule="nonzero"></path>
                            <path d="M31,29 L31,23 L28.4324324,23 L28.4324324,22.3783784 C28.4324324,20.9189189 28.5900901,19.7432432 28.9054054,18.8513514 C29.2207207,17.9594595 29.6936937,17.3423423 30.3243243,17 L30.3243243,17 L30.3243243,15 C28.5405405,15.4504505 27.2072072,16.4684685 26.3243243,18.0540541 C25.4414414,19.6396396 25,21.7927928 25,24.5135135 L25,24.5135135 L25,29 L31,29 Z M21,29 L21,23 L18.4324324,23 L18.4324324,22.3783784 C18.4324324,20.9189189 18.5900901,19.7432432 18.9054054,18.8513514 C19.2207207,17.9594595 19.6936937,17.3423423 20.3243243,17 L20.3243243,17 L20.3243243,15 C18.5405405,15.4504505 17.2072072,16.4684685 16.3243243,18.0540541 C15.4414414,19.6396396 15,21.7927928 15,24.5135135 L15,24.5135135 L15,29 L21,29 Z" id="“" fill="#8C65F2" fill-rule="nonzero"></path>
                        </g>
                        <g id="Group-56">
                            <rect id="Rectangle-Copy-9" stroke="#D4D4D4" fill="#FFFFFF" x="0" y="0" width="185" height="97" rx="6"></rect>
                            <path d="M165.276984,41.2761424 L158.610317,47.942809 L158.610317,49.6666667 L160.334175,49.6666667 L167.000842,43 L165.276984,41.2761424 Z M168.676984,53 C169.008355,53 169.276984,53.2984768 169.276984,53.6666667 C169.276984,54.0348565 169.008355,54.3333333 168.676984,54.3333333 L168.676984,54.3333333 L157.876984,54.3333333 C157.545613,54.3333333 157.276984,54.0348565 157.276984,53.6666667 C157.276984,53.2984768 157.545613,53 157.876984,53 L157.876984,53 Z M165.748389,39.8619288 L168.415055,42.5285955 C168.675405,42.788945 168.675405,43.211055 168.415055,43.4714045 L161.081722,50.8047379 C160.956698,50.9297621 160.787128,51 160.610317,51 L157.943651,51 C157.575461,51 157.276984,50.7015232 157.276984,50.3333333 L157.276984,47.6666667 C157.276984,47.4898557 157.347222,47.3202864 157.472246,47.1952621 L164.80558,39.8619288 C165.065929,39.6015793 165.488039,39.6015793 165.748389,39.8619288 Z" id="Combined-Shape" fill="#FF4F80" fill-rule="nonzero"></path>
                            <path d="M165.276984,69.2761424 L158.610317,75.942809 L158.610317,77.6666667 L160.334175,77.6666667 L167.000842,71 L165.276984,69.2761424 Z M168.676984,81 C169.008355,81 169.276984,81.2984768 169.276984,81.6666667 C169.276984,82.0348565 169.008355,82.3333333 168.676984,82.3333333 L168.676984,82.3333333 L157.876984,82.3333333 C157.545613,82.3333333 157.276984,82.0348565 157.276984,81.6666667 C157.276984,81.2984768 157.545613,81 157.876984,81 L157.876984,81 Z M165.748389,67.8619288 L168.415055,70.5285955 C168.675405,70.788945 168.675405,71.211055 168.415055,71.4714045 L161.081722,78.8047379 C160.956698,78.9297621 160.787128,79 160.610317,79 L157.943651,79 C157.575461,79 157.276984,78.7015232 157.276984,78.3333333 L157.276984,75.6666667 C157.276984,75.4898557 157.347222,75.3202864 157.472246,75.1952621 L164.80558,67.8619288 C165.065929,67.6015793 165.488039,67.6015793 165.748389,67.8619288 Z" id="Combined-Shape-Copy-4" fill="#FF4F80" fill-rule="nonzero"></path>
                            <path d="M21.8066508,28.848 L21.9826508,28.045 C21.0256508,28.155 20.3546508,27.88 20.1566508,27.11 C21.8506508,26.912 22.9616508,25.515 22.9616508,23.326 C22.9616508,20.961 21.6636508,19.52 19.7276508,19.52 C17.7916508,19.52 16.4936508,20.961 16.4936508,23.326 C16.4936508,25.482 17.5716508,26.868 19.2326508,27.099 C19.3976508,28.177 20.2226508,28.98 21.8066508,28.848 Z M19.7276508,26.351 C18.2756508,26.351 17.4836508,25.119 17.4836508,23.326 C17.4836508,21.533 18.2756508,20.301 19.7276508,20.301 C21.1796508,20.301 21.9716508,21.533 21.9716508,23.326 C21.9716508,25.119 21.1796508,26.351 19.7276508,26.351 Z M27.1526508,27.132 C28.7036508,27.132 29.8916508,26.23 29.8916508,24.349 L29.8916508,19.652 L28.9676508,19.652 L28.9676508,24.25 C28.9676508,25.691 28.2636508,26.34 27.1526508,26.34 C26.0416508,26.34 25.3596508,25.691 25.3596508,24.25 L25.3596508,19.652 L24.4246508,19.652 L24.4246508,24.349 C24.4246508,26.23 25.6236508,27.132 27.1526508,27.132 Z M36.4476508,27 L36.4476508,26.186 L32.7296508,26.186 L32.7296508,23.667 L36.0406508,23.667 L36.0406508,22.853 L32.7296508,22.853 L32.7296508,20.466 L36.4476508,20.466 L36.4476508,19.652 L31.8276508,19.652 L31.8276508,27 L36.4476508,27 Z M40.2756508,27.132 C41.6616508,27.132 42.7946508,26.384 42.7946508,25.053 C42.7946508,22.259 38.7246508,23.48 38.7246508,21.555 C38.7246508,20.796 39.3406508,20.279 40.2756508,20.279 C41.1776508,20.279 41.7936508,20.829 41.8926508,21.676 L42.7506508,21.489 C42.5856508,20.114 41.6066508,19.52 40.2646508,19.52 C38.9006508,19.52 37.8336508,20.345 37.8336508,21.599 C37.8336508,24.316 41.9036508,23.161 41.9036508,25.086 C41.9036508,25.955 41.1666508,26.373 40.2756508,26.373 C39.2856508,26.373 38.4936508,25.746 38.3506508,24.712 L37.5036508,24.976 C37.7016508,26.318 38.7686508,27.132 40.2756508,27.132 Z M47.1616508,27 L47.1616508,20.466 L49.6806508,20.466 L49.6806508,19.652 L43.7186508,19.652 L43.7186508,20.466 L46.2376508,20.466 L46.2376508,27 L47.1616508,27 Z M51.9796508,27 L51.9796508,19.652 L51.0556508,19.652 L51.0556508,27 L51.9796508,27 Z M56.7866508,27.132 C58.7226508,27.132 60.0206508,25.691 60.0206508,23.326 C60.0206508,20.961 58.7226508,19.52 56.7866508,19.52 C54.8506508,19.52 53.5526508,20.961 53.5526508,23.326 C53.5526508,25.691 54.8506508,27.132 56.7866508,27.132 Z M56.7866508,26.351 C55.3346508,26.351 54.5426508,25.119 54.5426508,23.326 C54.5426508,21.533 55.3346508,20.301 56.7866508,20.301 C58.2386508,20.301 59.0306508,21.533 59.0306508,23.326 C59.0306508,25.119 58.2386508,26.351 56.7866508,26.351 Z M62.4956508,27 L62.4956508,21.159 L62.5176508,21.159 L66.4006508,27 L67.2476508,27 L67.2476508,19.652 L66.3456508,19.652 L66.3456508,25.438 L66.3236508,25.438 L62.5396508,19.652 L61.5936508,19.652 L61.5936508,27 L62.4956508,27 Z M71.3946508,27.132 C72.7806508,27.132 73.9136508,26.384 73.9136508,25.053 C73.9136508,22.259 69.8436508,23.48 69.8436508,21.555 C69.8436508,20.796 70.4596508,20.279 71.3946508,20.279 C72.2966508,20.279 72.9126508,20.829 73.0116508,21.676 L73.8696508,21.489 C73.7046508,20.114 72.7256508,19.52 71.3836508,19.52 C70.0196508,19.52 68.9526508,20.345 68.9526508,21.599 C68.9526508,24.316 73.0226508,23.161 73.0226508,25.086 C73.0226508,25.955 72.2856508,26.373 71.3946508,26.373 C70.4046508,26.373 69.6126508,25.746 69.4696508,24.712 L68.6226508,24.976 C68.8206508,26.318 69.8876508,27.132 71.3946508,27.132 Z" id="QUESTIONS" fill="#272C2F" fill-rule="nonzero"></path>
                            <line x1="139.943651" y1="46.75" x2="19.9436508" y2="46.75" id="Line-3-Copy" stroke="#E7EAEB" stroke-width="8" stroke-linecap="round"></line>
                            <line x1="139.943651" y1="74.75" x2="19.9436508" y2="74.75" id="Line-3-Copy-3" stroke="#E7EAEB" stroke-width="8" stroke-linecap="round"></line>
                        </g>
                    </g>
                    <g id="Group-57" transform="translate(263.000000, 95.000000)">
                        <circle id="Oval" stroke="#FF4F80" stroke-width="2" fill="#FFFFFF" cx="32" cy="32" r="32"></circle>
                        <mask id="mask-6" fill="white">
                            <use xlink:href="#path-5"></use>
                        </mask>
                        <use id="Combined-Shape" fill="#FF4F80" fill-rule="nonzero" xlink:href="#path-5"></use>
                    </g>
                    <g id="Group-58" transform="translate(212.000000, 123.000000)" stroke="#FF4F80" stroke-width="2">
                        <line x1="0" y1="6" x2="30.8647404" y2="5.65520027" id="Path-4"></line>
                        <polyline id="Path-6" points="25 0 31 5.5 25 11"></polyline>
                    </g>
                </g>
                <polygon id="Triangle-Copy-7" fill="#4FCEFF" transform="translate(255.131728, 48.131728) scale(-1, -1) rotate(-26.000000) translate(-255.131728, -48.131728) " points="255.135252 43.131728 261.631728 53.1271177 248.631728 53.131728"></polygon>
                <g id="Group-8-Copy" transform="translate(253.445436, 249.445436) rotate(-315.000000) translate(-253.445436, -249.445436) translate(239.445436, 235.945436)" fill="#D1D3D4">
                    <circle id="Oval-6-Copy" cx="3.29898987" cy="2.6507576" r="2.5"></circle>
                    <circle id="Oval-6-Copy-4" cx="13.1984848" cy="2.6507576" r="2.5"></circle>
                    <circle id="Oval-6-Copy-5" cx="24.5121933" cy="2.6507576" r="2.5"></circle>
                    <circle id="Oval-6-Copy-8" cx="3.29898987" cy="12.5502525" r="2.5"></circle>
                    <circle id="Oval-6-Copy-7" cx="13.9055916" cy="13.2573593" r="2.5"></circle>
                    <circle id="Oval-6-Copy-6" cx="24.5121933" cy="12.5502525" r="2.5"></circle>
                    <circle id="Oval-6-Copy-11" cx="3.29898987" cy="23.863961" r="2.5"></circle>
                    <circle id="Oval-6-Copy-10" cx="13.1984848" cy="23.863961" r="2.5"></circle>
                    <circle id="Oval-6-Copy-9" cx="24.5121933" cy="23.863961" r="2.5"></circle>
                </g>
                <polygon id="Rectangle-19-Copy-6" fill="#F29E18" transform="translate(303.833631, 197.897971) rotate(45.000000) translate(-303.833631, -197.897971) " points="299.333631 193.397971 308.333631 193.397971 308.333631 202.397971 299.333631 202.397971"></polygon>
                <circle id="Oval" fill="#00D6B6" cx="152" cy="234" r="5"></circle>
            </g>
        </g>
    </g>
</svg>