<?xml version="1.0" encoding="UTF-8"?>
<svg width="85px" height="126px" viewBox="0 0 85 126" version="1.1" xmlns="http://www.w3.org/2000/svg" xmlns:xlink="http://www.w3.org/1999/xlink">
    <title>Group 28</title>
    <defs>
        <path d="M44.6666667,39 C44.7131019,39 44.7589827,39.0023737 44.8041944,39.0070065 L44.6666667,39 C44.7326486,39 44.7981263,39.0048907 44.8626151,39.0144714 C44.8891085,39.0181969 44.9154449,39.0228962 44.9415016,39.0283563 C44.9615576,39.0328555 44.9813166,39.0374955 45.0009448,39.0425794 C45.025463,39.0485832 45.0495167,39.0555357 45.0732804,39.0631366 C45.0934756,39.0699731 45.113833,39.077035 45.1340036,39.084584 C45.1596834,39.0938072 45.1851121,39.1042408 45.2101332,39.1154229 C45.2260111,39.1228754 45.241584,39.1301934 45.2570141,39.1378123 C45.3394243,39.1782269 45.4171826,39.2273685 45.4890117,39.2837237 C45.4979713,39.2908023 45.5074618,39.2984413 45.5168553,39.3062173 C45.5423025,39.3272918 45.5662848,39.348695 45.5894656,39.3709276 C45.5960163,39.3772075 45.602778,39.3838266 45.6094757,39.3905243 L53.6094757,47.3905243 L53.6271315,47.408515 C53.65006,47.4323216 53.6721116,47.4569785 53.6932345,47.4824338 L53.6094757,47.3905243 C53.6478321,47.4288807 53.6836102,47.4693334 53.7166985,47.5116131 C53.7726315,47.5828174 53.8217731,47.6605757 53.8626099,47.7431725 C53.8698066,47.758416 53.8771246,47.7739889 53.8841379,47.7896956 C53.8957592,47.8148879 53.9061928,47.8403166 53.9158496,47.8661246 C53.922965,47.886167 53.9300269,47.9065244 53.9365944,47.9270508 C53.9444643,47.9504833 53.9514168,47.974537 53.9577002,47.9988598 C53.9625045,48.0186834 53.9671445,48.0384424 53.9713344,48.0583176 C53.9771038,48.0845551 53.9818031,48.1108915 53.9857175,48.1374833 C53.9884541,48.1570772 53.9909424,48.1768617 53.9929876,48.1967246 C53.9976616,48.2417021 54,48.2872446 54,48.3333333 L54,48.3333333 L54,64.3333333 C54,66.5424723 52.209139,68.3333333 50,68.3333333 L34,68.3333333 C31.790861,68.3333333 30,66.5424723 30,64.3333333 L30,43 C30,40.790861 31.790861,39 34,39 Z M43.333,41.666 L34,41.6666667 C33.2636203,41.6666667 32.6666667,42.2636203 32.6666667,43 L32.6666667,64.3333333 C32.6666667,65.069713 33.2636203,65.6666667 34,65.6666667 L50,65.6666667 C50.7363797,65.6666667 51.3333333,65.069713 51.3333333,64.3333333 L51.333,49.666 L44.6666667,49.6666667 C43.9736035,49.6666667 43.4040456,49.1378773 43.339437,48.4617422 L43.3333333,48.3333333 L43.333,41.666 Z M47.3333333,59 C48.069713,59 48.6666667,59.5969537 48.6666667,60.3333333 C48.6666667,61.069713 48.069713,61.6666667 47.3333333,61.6666667 L47.3333333,61.6666667 L36.6666667,61.6666667 C35.930287,61.6666667 35.3333333,61.069713 35.3333333,60.3333333 C35.3333333,59.5969537 35.930287,59 36.6666667,59 L36.6666667,59 Z M47.3333333,53.6666667 C48.069713,53.6666667 48.6666667,54.2636203 48.6666667,55 C48.6666667,55.7363797 48.069713,56.3333333 47.3333333,56.3333333 L47.3333333,56.3333333 L36.6666667,56.3333333 C35.930287,56.3333333 35.3333333,55.7363797 35.3333333,55 C35.3333333,54.2636203 35.930287,53.6666667 36.6666667,53.6666667 L36.6666667,53.6666667 Z M39.3333333,48.3333333 C40.069713,48.3333333 40.6666667,48.930287 40.6666667,49.6666667 C40.6666667,50.4030463 40.069713,51 39.3333333,51 L39.3333333,51 L36.6666667,51 C35.930287,51 35.3333333,50.4030463 35.3333333,49.6666667 C35.3333333,48.930287 35.930287,48.3333333 36.6666667,48.3333333 L36.6666667,48.3333333 Z M45.999,43.551 L46,47 L49.448,47 L45.999,43.551 Z" id="path-1"></path>
    </defs>
    <g id="v2" stroke="none" stroke-width="1" fill="none" fill-rule="evenodd">
        <g id="website-v2_landing_1024" transform="translate(-470.000000, -2297.000000)">
            <g id="Group-75" transform="translate(367.000000, 2268.000000)">
                <g id="Group-28" transform="translate(103.000000, 29.000000)">
                    <g id="Group-63-Copy" transform="translate(0.000000, 48.000000)" fill="#C6C6C6" fill-rule="nonzero" stroke="#C6C6C6">
                        <path d="M30.85,52.08 L30.4,52.3 L30.849,52.07 L30.44,51.26 C29.95,50.29 29.49,49.38 28.95,48.49 C28.8,48.18 28.559,47.56 28.349,47.04 C28.179,46.63 28.039,46.29 27.99,46.18 L27.87,45.93 C27.62,45.42 27.36,44.89 27.16,44.38 C26.94,43.86 26.73,43.31 26.53,42.76 C26.29,42.13 26.04,41.48 25.78,40.86 C25.349,39.83 24.82,38.81 24.3,37.82 C23.6,36.46 22.87,35.05 22.42,33.65 C21.9,32.06 21.71,30.17 21.53,28.35 C21.42,27.33 21.309,26.27 21.15,25.28 C21.049,24.67 20.96,23.98 20.87,23.26 C20.43,19.84 19.75,15.19 16.64,13.39 C16.151,10.59 15.491,8.55 14.54,7.72 C14.18,7.4 13.78,7.25 13.35,7.27 C12.81,3.88 11.861,1.46 10.031,1.3 L9.671,1.26 L9.531,1.6 C8.941,3.03 8.6,4.55 8.39,6.02 L8.24,7.09 C8.21,7.38 8.179,7.67 8.15,7.95 C8.08,7.88 8.019,7.81 7.95,7.75 C7.46,7.33 6.849,7.19 6.19,7.32 L5.9,7.38 L5.809,7.66 C5.389,9.05 5.129,10.51 4.95,11.99 L4.83,13.01 C4.75,13.73 4.68,14.45 4.61,15.16 C4.5,16.32 4.389,17.53 4.23,18.69 C4.219,18.74 4.219,18.79 4.209,18.84 L4.1,19.83 C3.88,21.72 3.81,23.61 3.85,25.5 L3.88,26.5 C3.95,28.39 4.13,30.28 4.38,32.13 L4.52,33.12 C4.8,35.03 5.161,36.9 5.571,38.73 L5.8,39.71 C6.25,41.7 6.76,43.63 7.27,45.48 L7.57,46.46 C8.21,48.44 9.13,50.28 10.21,52.02 L10.76,52.87 C11.91,54.65 13.21,56.34 14.5,58.01 L15.12,58.82 C16.47,60.57 17.84,62.38 19.01,64.24 C19.05,64.38 19.08,64.52 19.111,64.66 L19.281,66.35 C19.281,67.6 19.041,68.89 18.781,70.29 C18.64,71.05 18.491,71.85 18.361,72.7 C18.2,73.83 17.9,74.93 17.6,76.01 L18.63,76.01 C18.92,74.99 19.191,73.94 19.35,72.85 C19.481,72.01 19.621,71.23 19.76,70.48 C20.14,68.46 20.481,66.67 20.16,64.82 C20.11,64.46 20.03,64.09 19.91,63.72 L19.79,63.76 L19.86,63.71 C19.82,63.65 19.79,63.6 19.75,63.54 C18.55,61.64 17.15,59.8 15.78,58.03 C15.679,57.9 15.58,57.78 15.48,57.65 C15.37,57.51 15.259,57.37 15.15,57.23 C13.9,55.61 12.65,53.96 11.53,52.23 C11.34,51.95 11.16,51.66 10.99,51.37 C9.94,49.66 9.05,47.87 8.45,45.95 C8.389,45.75 8.33,45.55 8.269,45.34 C8.24,45.21 8.2,45.09 8.169,44.96 C7.669,43.16 7.179,41.29 6.739,39.37 C6.659,39.05 6.589,38.72 6.518,38.39 C6.128,36.61 5.779,34.8 5.508,32.95 C5.458,32.62 5.408,32.29 5.368,31.96 C5.118,30.16 4.948,28.33 4.888,26.5 C4.868,26.17 4.859,25.83 4.848,25.5 C4.808,23.67 4.878,21.83 5.078,20 C5.108,19.67 5.148,19.34 5.198,19.01 C5.198,18.95 5.208,18.88 5.218,18.82 C5.378,17.65 5.498,16.43 5.609,15.25 C5.669,14.62 5.729,13.99 5.789,13.36 C5.829,13.02 5.869,12.68 5.909,12.34 C6.079,10.95 6.308,9.57 6.669,8.27 C6.909,8.27 7.119,8.35 7.309,8.51 C8.12,9.19 8.509,11.06 8.679,13.34 C8.709,13.69 8.73,14.06 8.74,14.43 C8.849,16.6 8.79,19.01 8.75,21.09 C8.69,23.8 8.64,25.99 8.89,27.16 C8.72,27.21 8.55,27.26 8.37,27.34 C6.65,28.16 7.05,29.72 7.38,30.98 L7.45,31.24 C7.48,31.35 7.51,31.46 7.54,31.57 L7.54,31.58 C7.62,31.91 7.72,32.22 7.82,32.54 C8.309,34.15 8.94,35.73 9.59,37.27 C9.72,37.58 9.85,37.89 9.981,38.19 C10.031,38.31 10.09,38.44 10.14,38.56 C10.741,39.95 11.34,41.37 11.88,42.82 C11.99,43.14 12.1,43.46 12.2,43.78 C12.4,44.37 12.58,44.96 12.74,45.55 L13.7,45.3 C13.059,42.84 12.04,40.47 11.059,38.17 C10.07,35.84 9.039,33.44 8.41,30.99 L8.349,30.72 C7.969,29.26 7.91,28.67 8.799,28.24 C10.179,27.59 11.259,28.5 11.82,29.57 C12.23,30.36 12.61,31.13 12.99,31.9 C13.29,32.54 13.599,33.16 13.92,33.78 C13.981,34.04 14.06,34.29 14.16,34.5 L14.269,34.45 C15.099,36.02 16.03,37.53 17.29,38.99 C18.63,40.53 20.32,41.77 21.95,42.97 C23.41,44.04 24.92,45.15 26.16,46.46 C27.76,48.17 28.59,49.81 29.54,51.71 L29.95,52.51 C30.42,53.52 30.54,55.51 30.54,57.96 C30.54,58.29 30.53,58.63 30.53,58.98 L30.53,58.99 C30.53,59.57 30.519,60.15 30.509,60.76 C30.489,61.91 30.469,63.13 30.48,64.38 C30.48,66.63 30.44,68.87 30.4,71.12 C30.37,72.72 30.339,74.35 30.33,76.01 L31.33,76.01 C31.34,74.37 31.37,72.74 31.4,71.14 C31.44,68.89 31.48,66.64 31.48,64.38 C31.469,63.13 31.49,61.92 31.509,60.77 C31.56,56.8 31.6,53.66 30.85,52.08 Z M13.71,29.15 C13.69,29.76 13.67,30.4 13.67,31.03 C13.36,30.39 13.04,29.76 12.71,29.11 C12.13,28.01 11.12,27.13 9.89,27.04 C9.64,26.06 9.691,23.66 9.75,21.11 C9.79,19.01 9.84,16.81 9.76,14.8 C9.75,14.43 9.731,14.06 9.7,13.71 C9.59,11.84 9.33,10.2 8.83,9.04 L9.059,9.06 C9.099,8.6 9.139,8.12 9.19,7.64 C9.23,7.28 9.269,6.92 9.32,6.56 C9.5,5.16 9.79,3.73 10.29,2.38 C11.47,2.9 12.13,5.49 12.51,8.4 C12.54,8.62 12.571,8.84 12.59,9.06 C12.861,11.39 12.97,13.84 13.05,15.55 C13.111,16.93 13.16,18.02 13.25,18.63 C13.65,21.42 13.74,24.22 13.75,27.57 C13.75,28.04 13.73,28.58 13.71,29.15 Z M22.54,42.16 C20.88,40.94 19.31,39.79 18.05,38.33 C16.7,36.78 15.74,35.14 14.861,33.42 C14.611,32.3 14.661,30.61 14.711,29.18 C14.732,28.6 14.751,28.05 14.751,27.57 C14.741,24.18 14.651,21.33 14.241,18.49 C14.151,17.93 14.111,16.86 14.041,15.51 C13.931,12.98 13.791,10.47 13.501,8.27 C13.601,8.29 13.731,8.34 13.881,8.47 C16.031,10.36 16.611,21.68 16.951,28.44 C17.121,31.73 17.251,34.33 17.491,35.29 L18.461,35.04 C18.241,34.18 18.111,31.5 17.951,28.39 C17.691,23.27 17.39,18.4 16.831,14.62 C18.971,16.41 19.481,20.26 19.881,23.39 C19.971,24.12 20.061,24.82 20.161,25.45 C20.321,26.4 20.421,27.4 20.531,28.45 C20.72,30.33 20.921,32.27 21.461,33.96 C21.941,35.44 22.691,36.88 23.421,38.28 C23.921,39.25 24.442,40.25 24.861,41.24 C25.121,41.86 25.361,42.49 25.59,43.11 C25.8,43.67 26.01,44.23 26.231,44.76 C26.321,44.98 26.42,45.2 26.52,45.42 C25.3,44.2 23.91,43.16 22.54,42.16 Z" id="Shape" transform="translate(17.686187, 38.635000) rotate(-5.000000) translate(-17.686187, -38.635000) "></path>
                        <path d="M79.85,52.08 L79.4,52.3 L79.849,52.07 L79.44,51.26 C78.95,50.29 78.49,49.38 77.95,48.49 C77.8,48.18 77.559,47.56 77.349,47.04 C77.179,46.63 77.039,46.29 76.99,46.18 L76.87,45.93 C76.62,45.42 76.36,44.89 76.16,44.38 C75.94,43.86 75.73,43.31 75.53,42.76 C75.29,42.13 75.04,41.48 74.78,40.86 C74.349,39.83 73.82,38.81 73.3,37.82 C72.6,36.46 71.87,35.05 71.42,33.65 C70.9,32.06 70.71,30.17 70.53,28.35 C70.42,27.33 70.309,26.27 70.15,25.28 C70.049,24.67 69.96,23.98 69.87,23.26 C69.43,19.84 68.75,15.19 65.64,13.39 C65.151,10.59 64.491,8.55 63.54,7.72 C63.18,7.4 62.78,7.25 62.35,7.27 C61.81,3.88 60.861,1.46 59.031,1.3 L58.671,1.26 L58.531,1.6 C57.941,3.03 57.6,4.55 57.39,6.02 L57.24,7.09 C57.21,7.38 57.179,7.67 57.15,7.95 C57.08,7.88 57.019,7.81 56.95,7.75 C56.46,7.33 55.849,7.19 55.19,7.32 L54.9,7.38 L54.809,7.66 C54.389,9.05 54.129,10.51 53.95,11.99 L53.83,13.01 C53.75,13.73 53.68,14.45 53.61,15.16 C53.5,16.32 53.389,17.53 53.23,18.69 C53.219,18.74 53.219,18.79 53.209,18.84 L53.1,19.83 C52.88,21.72 52.81,23.61 52.85,25.5 L52.88,26.5 C52.95,28.39 53.13,30.28 53.38,32.13 L53.52,33.12 C53.8,35.03 54.161,36.9 54.571,38.73 L54.8,39.71 C55.25,41.7 55.76,43.63 56.27,45.48 L56.57,46.46 C57.21,48.44 58.13,50.28 59.21,52.02 L59.76,52.87 C60.91,54.65 62.21,56.34 63.5,58.01 L64.12,58.82 C65.47,60.57 66.84,62.38 68.01,64.24 C68.05,64.38 68.08,64.52 68.111,64.66 L68.281,66.35 C68.281,67.6 68.041,68.89 67.781,70.29 C67.64,71.05 67.491,71.85 67.361,72.7 C67.2,73.83 66.9,74.93 66.6,76.01 L67.63,76.01 C67.92,74.99 68.191,73.94 68.35,72.85 C68.481,72.01 68.621,71.23 68.76,70.48 C69.14,68.46 69.481,66.67 69.16,64.82 C69.11,64.46 69.03,64.09 68.91,63.72 L68.79,63.76 L68.86,63.71 C68.82,63.65 68.79,63.6 68.75,63.54 C67.55,61.64 66.15,59.8 64.78,58.03 C64.679,57.9 64.58,57.78 64.48,57.65 C64.37,57.51 64.259,57.37 64.15,57.23 C62.9,55.61 61.65,53.96 60.53,52.23 C60.34,51.95 60.16,51.66 59.99,51.37 C58.94,49.66 58.05,47.87 57.45,45.95 C57.389,45.75 57.33,45.55 57.269,45.34 C57.24,45.21 57.2,45.09 57.169,44.96 C56.669,43.16 56.179,41.29 55.739,39.37 C55.659,39.05 55.589,38.72 55.518,38.39 C55.128,36.61 54.779,34.8 54.508,32.95 C54.458,32.62 54.408,32.29 54.368,31.96 C54.118,30.16 53.948,28.33 53.888,26.5 C53.868,26.17 53.859,25.83 53.848,25.5 C53.808,23.67 53.878,21.83 54.078,20 C54.108,19.67 54.148,19.34 54.198,19.01 C54.198,18.95 54.208,18.88 54.218,18.82 C54.378,17.65 54.498,16.43 54.609,15.25 C54.669,14.62 54.729,13.99 54.789,13.36 C54.829,13.02 54.869,12.68 54.909,12.34 C55.079,10.95 55.308,9.57 55.669,8.27 C55.909,8.27 56.119,8.35 56.309,8.51 C57.12,9.19 57.509,11.06 57.679,13.34 C57.709,13.69 57.73,14.06 57.74,14.43 C57.849,16.6 57.79,19.01 57.75,21.09 C57.69,23.8 57.64,25.99 57.89,27.16 C57.72,27.21 57.55,27.26 57.37,27.34 C55.65,28.16 56.05,29.72 56.38,30.98 L56.45,31.24 C56.48,31.35 56.51,31.46 56.54,31.57 L56.54,31.58 C56.62,31.91 56.72,32.22 56.82,32.54 C57.309,34.15 57.94,35.73 58.59,37.27 C58.72,37.58 58.85,37.89 58.981,38.19 C59.031,38.31 59.09,38.44 59.14,38.56 C59.741,39.95 60.34,41.37 60.88,42.82 C60.99,43.14 61.1,43.46 61.2,43.78 C61.4,44.37 61.58,44.96 61.74,45.55 L62.7,45.3 C62.059,42.84 61.04,40.47 60.059,38.17 C59.07,35.84 58.039,33.44 57.41,30.99 L57.349,30.72 C56.969,29.26 56.91,28.67 57.799,28.24 C59.179,27.59 60.259,28.5 60.82,29.57 C61.23,30.36 61.61,31.13 61.99,31.9 C62.29,32.54 62.599,33.16 62.92,33.78 C62.981,34.04 63.06,34.29 63.16,34.5 L63.269,34.45 C64.099,36.02 65.03,37.53 66.29,38.99 C67.63,40.53 69.32,41.77 70.95,42.97 C72.41,44.04 73.92,45.15 75.16,46.46 C76.76,48.17 77.59,49.81 78.54,51.71 L78.95,52.51 C79.42,53.52 79.54,55.51 79.54,57.96 C79.54,58.29 79.53,58.63 79.53,58.98 L79.53,58.99 C79.53,59.57 79.519,60.15 79.509,60.76 C79.489,61.91 79.469,63.13 79.48,64.38 C79.48,66.63 79.44,68.87 79.4,71.12 C79.37,72.72 79.339,74.35 79.33,76.01 L80.33,76.01 C80.34,74.37 80.37,72.74 80.4,71.14 C80.44,68.89 80.48,66.64 80.48,64.38 C80.469,63.13 80.49,61.92 80.509,60.77 C80.56,56.8 80.6,53.66 79.85,52.08 Z M62.71,29.15 C62.69,29.76 62.67,30.4 62.67,31.03 C62.36,30.39 62.04,29.76 61.71,29.11 C61.13,28.01 60.12,27.13 58.89,27.04 C58.64,26.06 58.691,23.66 58.75,21.11 C58.79,19.01 58.84,16.81 58.76,14.8 C58.75,14.43 58.731,14.06 58.7,13.71 C58.59,11.84 58.33,10.2 57.83,9.04 L58.059,9.06 C58.099,8.6 58.139,8.12 58.19,7.64 C58.23,7.28 58.269,6.92 58.32,6.56 C58.5,5.16 58.79,3.73 59.29,2.38 C60.47,2.9 61.13,5.49 61.51,8.4 C61.54,8.62 61.571,8.84 61.59,9.06 C61.861,11.39 61.97,13.84 62.05,15.55 C62.111,16.93 62.16,18.02 62.25,18.63 C62.65,21.42 62.74,24.22 62.75,27.57 C62.75,28.04 62.73,28.58 62.71,29.15 Z M71.54,42.16 C69.88,40.94 68.31,39.79 67.05,38.33 C65.7,36.78 64.74,35.14 63.861,33.42 C63.611,32.3 63.661,30.61 63.711,29.18 C63.732,28.6 63.751,28.05 63.751,27.57 C63.741,24.18 63.651,21.33 63.241,18.49 C63.151,17.93 63.111,16.86 63.041,15.51 C62.931,12.98 62.791,10.47 62.501,8.27 C62.601,8.29 62.731,8.34 62.881,8.47 C65.031,10.36 65.611,21.68 65.951,28.44 C66.121,31.73 66.251,34.33 66.491,35.29 L67.461,35.04 C67.241,34.18 67.111,31.5 66.951,28.39 C66.691,23.27 66.39,18.4 65.831,14.62 C67.971,16.41 68.481,20.26 68.881,23.39 C68.971,24.12 69.061,24.82 69.161,25.45 C69.321,26.4 69.421,27.4 69.531,28.45 C69.72,30.33 69.921,32.27 70.461,33.96 C70.941,35.44 71.691,36.88 72.421,38.28 C72.921,39.25 73.442,40.25 73.861,41.24 C74.121,41.86 74.361,42.49 74.59,43.11 C74.8,43.67 75.01,44.23 75.231,44.76 C75.321,44.98 75.42,45.2 75.52,45.42 C74.3,44.2 72.91,43.16 71.54,42.16 Z" id="Shape-Copy" transform="translate(66.686187, 38.635000) scale(-1, 1) rotate(-5.000000) translate(-66.686187, -38.635000) "></path>
                    </g>
                    <g id="Group-20" transform="translate(8.000000, 0.000000)" stroke="#F29E18" stroke-width="2">
                        <line x1="34.0465269" y1="24.6527778" x2="34.0465269" y2="0.347222222" id="Path-4"></line>
                        <line x1="48.5620359" y1="25.6666667" x2="57.8953692" y2="10.3333333" id="Path-4-Copy"></line>
                        <line x1="9.56203585" y1="25.6666667" x2="18.8953692" y2="10.3333333" id="Path-4-Copy-2" transform="translate(14.500000, 18.000000) scale(-1, 1) translate(-14.500000, -18.000000) "></line>
                        <line x1="1" y1="34" x2="10" y2="29" id="Path-4-Copy-3" transform="translate(5.500000, 31.500000) scale(-1, 1) translate(-5.500000, -31.500000) "></line>
                        <line x1="58" y1="34" x2="67" y2="29" id="Path-4-Copy-4"></line>
                    </g>
                    <mask id="mask-2" fill="white">
                        <use xlink:href="#path-1"></use>
                    </mask>
                    <use id="Combined-Shape" fill="#FF4F80" fill-rule="nonzero" xlink:href="#path-1"></use>
                </g>
            </g>
        </g>
    </g>
</svg>